<svg id="Layer_1" data-name="Layer 1" xmlns="http://www.w3.org/2000/svg" xmlns:xlink="http://www.w3.org/1999/xlink" viewBox="0 0 1000 1000"><defs><clipPath id="clip-path"><path id="SVGID" d="M761,579c-.58,18.41-4.28,26.26-8.09,30.65a6.06,6.06,0,0,1-.55.57c.14-1.65.28-3.17.4-4.53,1.25-13.78-5.47-22.82-12.26-28.34a22.73,22.73,0,0,0-5-5.7,11.85,11.85,0,0,1,1.6,3.19c1.18,3.92-1.89,6.47-6.11,5.71-4.62-.84-11.55-8.33-11.55-8.33-14.35.93-21-5.08-21-5.08L685.61,566a94.23,94.23,0,0,1,3.15-11c2.13-5.9,5.22-11.86,8.88-11.14,7.05,1.4,21,8.1,21,8.1l25.44,5.66a6,6,0,0,1,3.4,2.14L759.65,575A6.13,6.13,0,0,1,761,579Z" style="fill:#fff;stroke:#263238;stroke-linecap:round;stroke-linejoin:round;stroke-width:1.618602991104126px"/></clipPath><clipPath id="clip-path-2"><path d="M436.36,390s27.5,35.8,39.76,75.81,28.67,79.08,46.71,87.4l35.61-24.45,25.32,17.86,11.1.35s6.82,8.78,29.71,12.48c15.39,2.49,22.63,6.34,25.72,8.59a9.33,9.33,0,0,0,5.51,1.82s22.73,4.25,31.66.78c-3-4.13-.86-21.59,14.8-27.37,0,0-14.57-7.4-15.72-9.94-.68-1.49-3.87-1.24-6.41-.78a13.15,13.15,0,0,1-7.68-.91c-3.22-1.4-7.18-3.56-8.11-5.94-.8-2.07-3-2.26-5-1.92a13.12,13.12,0,0,1-8.82-1.7l-29.35-17.2a13.6,13.6,0,0,0-4.7-1.69c-.61-.1-1.28-.19-2-.25a13.58,13.58,0,0,1-7.65-3.33,40.25,40.25,0,0,0-14.13-7.9,13.19,13.19,0,0,1-6.68-4.89c-3-4.16-8.27-10.5-13.81-12.26a13.19,13.19,0,0,1-4.69-2.76l-.24-.21a13.71,13.71,0,0,1-4.24-7.25c-.71-3.13-2.17-7.18-5-8.7a17.07,17.07,0,0,1-6.22-5.27c-8.09-11.65-29.87-41.63-45.59-50a7.88,7.88,0,0,0-4-.93l-22.9.93a23,23,0,0,1-8.16-1.1c-3.86-1.27-10.35-2.88-16.48-2C444.6,398.79,436.36,390,436.36,390Z" style="fill:#394257;stroke:#263238;stroke-linecap:round;stroke-linejoin:round;stroke-width:2.0232537388801575px"/></clipPath><clipPath id="clip-path-3"><path d="M642.83,814.52s-43.93,16.65-61,12.49L569.53,677.14l-23-5.23-.31-3.3-3.61.28a39.61,39.61,0,0,1-16.3-2.14c-26.49-9.46-56.22-7.4-66.42-6.3l-7.59-.86-16.66-60.23s38.16-19.43,95.39-6.94l43.35,1.38h18.27s32.14-4,27.05,47.76S629.88,789.54,642.83,814.52Z" style="fill:#394257;stroke:#23262d;stroke-linecap:round;stroke-linejoin:round;stroke-width:2.0232537388801575px"/></clipPath><clipPath id="clip-path-4"><path d="M596.36,887.82s-1.05-9.51,7.45-23.14c0,0,5.27,9.73,33.48-8.31,0,0,6.93-4.85,10.4,1.16s12,30.75,34.92,45.32c0,0,13.87,8.67,10.75,17.69,0,0,6.58,1.73.46,5.89s-58.85,6.94-72.26-4.16c0,0-11.56-17.69-15.37-19.19v7.75l-12.61-7.17.81-14.45Z" style="fill:#23262d;stroke:#394257;stroke-linecap:round;stroke-linejoin:round;stroke-width:2.0232537388801575px"/></clipPath><clipPath id="clip-path-5"><path d="M454.66,592.83,453.23,599l-15.33,4.81C415.6,557,397.68,576,361,566.82c-13.14-3.29-21.46-8.7-26.73-14.43a34,34,0,0,1-3-3.81l-5.64.67-8.26-6.94h0c7.59,10.12,6.28,13,6.28,13s-26,26.7-42.32,6.58-1.73-45.78-1.73-45.78c-1.05-11.79,10.15-26,10.15-26-3.37-8,1.64-9.71.25-15.25s3.47-16.19,3.23-20.58c-.13-2.63,1.1-10.84,2.11-17a13.66,13.66,0,0,1,8-10.32c13.61-5.92,43.37-18.93,48-21.46,6.07-3.29,16-19.59,16-19.59l9,32.79s23.15,48.66,27.2,65.65c5,21,14.77,73.19,9,86.43C417.85,576.36,454.66,592.83,454.66,592.83Z" style="fill:#394257;stroke:#263238;stroke-linecap:round;stroke-linejoin:round;stroke-width:2.0232537388801575px"/></clipPath><clipPath id="clip-path-6"><path d="M540.4,690.81l7.17,40.58,37.69,17.28s6.47-7.33,3.7-21.84c0,0-.31-5,2.48-12.38s1.1-32.31,1.1-32.31l-22.83-9.94-22.92,4.28Z" style="fill:#23262d;stroke:#394257;stroke-linecap:round;stroke-linejoin:round;stroke-width:2.0232537388801575px"/></clipPath></defs><g id="freepik--background-simple--inject-32"><path d="M812.39,132.21A385.11,385.11,0,0,0,740.08,100C687.86,82.92,632.51,76.25,577.7,76.88c-154.58,1.82-205.52,77.75-305.6,76s-225.34,63.81-233.22,176S60.36,501.34,149.68,548.7s247.52-20.54,376.2,1.79,245.76,56.3,334.2,4.47c84-49.2,115.21-158.64,93.42-249.78C935.41,229.77,878.17,170,812.39,132.21Z" style="fill:#f0f5ff"/></g><g id="freepik--text-3--inject-32"><path d="M317.92,100.27,318.18,85h3.29l1.88,9.6,2-9.6h3.19l.25,15.23h-2.25l-.25-10.33-1.93,10.33h-1.93l-2-10.41-.22,10.41Z" style="fill:#2c2638"/><path d="M335.29,100.47a4.93,4.93,0,0,1-2.69-.6,3.36,3.36,0,0,1-1.34-1.72,7.66,7.66,0,0,1-.43-2.69V89.8a7.44,7.44,0,0,1,.43-2.69,3.29,3.29,0,0,1,1.34-1.69,6.38,6.38,0,0,1,5.37,0,3.23,3.23,0,0,1,1.42,1.69,7.42,7.42,0,0,1,.41,2.69v5.68a7.4,7.4,0,0,1-.41,2.68A3.3,3.3,0,0,1,338,99.88,5.09,5.09,0,0,1,335.29,100.47Zm0-2.24a1.2,1.2,0,0,0,.89-.27,1.39,1.39,0,0,0,.37-.72,4.78,4.78,0,0,0,.1-1V89a4.73,4.73,0,0,0-.1-1,1.42,1.42,0,0,0-.37-.72,1.36,1.36,0,0,0-.89-.27,1.24,1.24,0,0,0-.85.27,1.42,1.42,0,0,0-.37.72,6.65,6.65,0,0,0-.1,1v7.2a6.64,6.64,0,0,0,.1,1,1.34,1.34,0,0,0,.36.72A1.17,1.17,0,0,0,335.29,98.23Z" style="fill:#2c2638"/><path d="M341.83,100.27V85H344L347.38,93V85h2.56v15.23h-2.07l-3.35-8.43v8.43Z" style="fill:#2c2638"/><path d="M353.71,100.27V87.35h-2.35V85h7.79v2.31h-2.31v12.92Z" style="fill:#2c2638"/><path d="M360.63,100.27V85h3.1V91.3h2.69V85h3.1v15.23h-3.1V93.48h-2.69v6.71Z" style="fill:#2c2638"/><path d="M371.8,100.27V85h3.11V98.16h3.57v2.11Z" style="fill:#2c2638"/><path d="M380.77,100.27v-6l-3-9.19h3l1.64,5.37L383.93,85h2.82l-2.93,9.19v6Z" style="fill:#2c2638"/><path d="M392.61,100.27V85h3.94a8.43,8.43,0,0,1,2.69.35,3,3,0,0,1,1.69,1.22,4.29,4.29,0,0,1,.59,2.45,7.08,7.08,0,0,1-.16,1.66,3,3,0,0,1-.55,1.27,3,3,0,0,1-1.14.86l2.11,7.42H398.6l-1.75-6.9h-1.09v6.9Zm3.1-8.74h.9a2.3,2.3,0,0,0,1.18-.26,1.31,1.31,0,0,0,.6-.73,3.5,3.5,0,0,0,.19-1.24,2.71,2.71,0,0,0-.35-1.6,1.59,1.59,0,0,0-1.43-.56h-1.05Z" style="fill:#2c2638"/><path d="M403.51,100.27V85h6.63v2.14h-3.53v4h2.69v2.16h-2.69v4.78h3.57v2.11Z" style="fill:#2c2638"/><path d="M411.74,100.27V85h4.84a4.46,4.46,0,0,1,2.23.51A3.28,3.28,0,0,1,420.15,87a6.19,6.19,0,0,1,.38,2.41A4.92,4.92,0,0,1,420,92a3.15,3.15,0,0,1-1.5,1.34,6,6,0,0,1-2.21.38h-1.41v6.61Zm3.1-8.78h1.09a2.26,2.26,0,0,0,1.05-.22,1.15,1.15,0,0,0,.5-.68,4.93,4.93,0,0,0,.13-1.21,5.79,5.79,0,0,0-.11-1.17,1.22,1.22,0,0,0-.45-.72,1.88,1.88,0,0,0-1.13-.27h-1.08Z" style="fill:#2c2638"/><path d="M426.43,100.47a4.92,4.92,0,0,1-2.68-.6,3.28,3.28,0,0,1-1.41-1.72,7.65,7.65,0,0,1-.42-2.69V89.8a7.65,7.65,0,0,1,.42-2.69,3.26,3.26,0,0,1,1.41-1.69,6.31,6.31,0,0,1,5.37,0,3.23,3.23,0,0,1,1.34,1.72,7.21,7.21,0,0,1,.43,2.68V95.5a7.44,7.44,0,0,1-.43,2.69,3.28,3.28,0,0,1-1.41,1.72A5,5,0,0,1,426.43,100.47Zm0-2.24a1.2,1.2,0,0,0,.89-.27,1.33,1.33,0,0,0,.38-.72,5.55,5.55,0,0,0,.09-1V89a5.5,5.5,0,0,0-.09-1,1.52,1.52,0,0,0-.38-.72,1.34,1.34,0,0,0-.89-.27,1.23,1.23,0,0,0-.84.27,1.4,1.4,0,0,0-.5.76,4.15,4.15,0,0,0-.09,1v7.19a5.55,5.55,0,0,0,.08,1,1.32,1.32,0,0,0,.37.72A1.16,1.16,0,0,0,426.43,98.23Z" style="fill:#2c2638"/><path d="M433,100.27V85h3.95a8.7,8.7,0,0,1,2.68.35,3.07,3.07,0,0,1,1.69,1.22,4.37,4.37,0,0,1,.59,2.45,7.08,7.08,0,0,1-.16,1.66,3.3,3.3,0,0,1-.56,1.27,2.77,2.77,0,0,1-1.14.86l2.11,7.42h-3.19l-1.74-6.9h-1.09v6.9Zm3.1-8.74h.9a2.3,2.3,0,0,0,1.18-.26,1.35,1.35,0,0,0,.62-.73,3.48,3.48,0,0,0,.17-1.24,2.66,2.66,0,0,0-.4-1.6,1.6,1.6,0,0,0-1.44-.56h-1Z" style="fill:#2c2638"/><path d="M445.24,100.27V87.35h-2.36V85h7.73v2.31H448.3v12.92Z" style="fill:#2c2638"/></g><g id="freepik--text-1--inject-32"><path d="M57.27,270l5.5-22.36H55.62v-3.76h12v3.29L62.12,270Z" style="fill:#2c2638"/><path d="M77.14,270.38a7.5,7.5,0,0,1-4.14-1,5.5,5.5,0,0,1-2.2-2.86,12.24,12.24,0,0,1-.67-4.2,9,9,0,0,1,.2-2,6.46,6.46,0,0,1,.58-1.72,5.72,5.72,0,0,1,1-1.34,4.45,4.45,0,0,1,1.34-1,6.72,6.72,0,0,1-1.85-2.19,7.27,7.27,0,0,1-.83-3.57,8.34,8.34,0,0,1,.71-3.72,5.33,5.33,0,0,1,2.23-2.42,8.59,8.59,0,0,1,7.38,0A5.18,5.18,0,0,1,83,246.79a8.46,8.46,0,0,1,.68,3.72,7.8,7.8,0,0,1-.79,3.61A6,6,0,0,1,81,256.27a4.5,4.5,0,0,1,1.35,1,5.72,5.72,0,0,1,1,1.34,7.5,7.5,0,0,1,.61,1.72,10.36,10.36,0,0,1,.2,2,10.89,10.89,0,0,1-.62,4.2,5.87,5.87,0,0,1-2.23,2.89A7.56,7.56,0,0,1,77.14,270.38Zm0-3.71a1.6,1.6,0,0,0,1.34-.64,3.6,3.6,0,0,0,.58-1.58,12.28,12.28,0,0,0,.13-1.82,11.14,11.14,0,0,0-.12-2,3.46,3.46,0,0,0-.59-1.58,1.63,1.63,0,0,0-1.34-.62,1.65,1.65,0,0,0-1.35.62,3.4,3.4,0,0,0-.61,1.57,13.58,13.58,0,0,0-.14,2,14.06,14.06,0,0,0,.12,1.83,3.33,3.33,0,0,0,.61,1.58,1.65,1.65,0,0,0,1.37.68Zm0-12.31a1.34,1.34,0,0,0,1.06-.48,3.21,3.21,0,0,0,.59-1.35,10.12,10.12,0,0,0,.2-2.13,4.93,4.93,0,0,0-.44-2.24,1.45,1.45,0,0,0-1.41-.86,1.52,1.52,0,0,0-1.44.86,4.53,4.53,0,0,0-.47,2.2,11.09,11.09,0,0,0,.19,2.15,3,3,0,0,0,.6,1.41A1.46,1.46,0,0,0,77.14,254.36Z" style="fill:#2c2638"/><path d="M89.68,254.4a3.15,3.15,0,0,1-2.62-1,4.69,4.69,0,0,1-.78-2.93v-.77a4.54,4.54,0,0,1,.77-2.91,3.28,3.28,0,0,1,2.68-.93,3.34,3.34,0,0,1,2.69.92,4.32,4.32,0,0,1,.76,2.86v.95a4.56,4.56,0,0,1-.77,2.89A3.18,3.18,0,0,1,89.68,254.4Zm0-1.85a.9.9,0,0,0,.71-.26,1.38,1.38,0,0,0,.28-.75,7.23,7.23,0,0,0,0-1.14v-.66a5.74,5.74,0,0,0-.13-1.49c-.09-.34-.4-.51-.91-.51s-.8.17-.89.5a5,5,0,0,0-.16,1.5v.67a8.72,8.72,0,0,0,.07,1.14,1.33,1.33,0,0,0,.29.74A.86.86,0,0,0,89.68,252.55Zm1.84,8.51,4.55-15.15h1.71l-4.54,15.15Zm8.06,0a3.13,3.13,0,0,1-2.69-1,4.67,4.67,0,0,1-.78-2.93v-.78a4.72,4.72,0,0,1,.75-2.9,4.43,4.43,0,0,1,5.38,0,4.37,4.37,0,0,1,.76,2.87v.86a4.55,4.55,0,0,1-.78,2.91,3.22,3.22,0,0,1-2.63,1Zm0-1.84a.91.91,0,0,0,.71-.27,1.48,1.48,0,0,0,.27-.74,6.82,6.82,0,0,0,.06-1.11v-.69a5.06,5.06,0,0,0-.14-1.5c-.1-.34-.41-.5-.9-.5s-.79.16-.89.5a5.43,5.43,0,0,0-.16,1.5v.69a10.27,10.27,0,0,0,0,1.11,1.21,1.21,0,0,0,.28.74.93.93,0,0,0,.78.3Z" style="fill:#2c2638"/></g><g id="freepik--text-4--inject-32"><path d="M643.62,467.26v-3.13a6.68,6.68,0,0,1-5.19-2.23,10.25,10.25,0,0,1-1.86-6.23l4.76-.8a13.25,13.25,0,0,0,.35,2.8,3.52,3.52,0,0,0,.85,1.7,2.18,2.18,0,0,0,1.5.55,1.51,1.51,0,0,0,1.42-.67,3.13,3.13,0,0,0,.39-1.55,5.09,5.09,0,0,0-.79-2.89,11.76,11.76,0,0,0-2.18-2.33L640,450a20.37,20.37,0,0,1-1.75-1.85A7.76,7.76,0,0,1,637,446a8.4,8.4,0,0,1-.46-2.86,6.51,6.51,0,0,1,1.82-4.92,7.42,7.42,0,0,1,4.82-2v-3h1.62v3a6.24,6.24,0,0,1,3,.83,5.26,5.26,0,0,1,1.78,1.82,9.12,9.12,0,0,1,.87,2.39,19.15,19.15,0,0,1,.33,2.51l-4.82.71a16.21,16.21,0,0,0-.2-2.2,3.17,3.17,0,0,0-.6-1.51,1.62,1.62,0,0,0-1.35-.51,1.7,1.7,0,0,0-1.43.74,2.82,2.82,0,0,0-.49,1.59,4,4,0,0,0,.74,2.49,15.23,15.23,0,0,0,1.68,1.82l2.86,2.37a17.07,17.07,0,0,1,2.06,2.19,10.15,10.15,0,0,1,1.51,2.61,8.59,8.59,0,0,1,.58,3.29,7.18,7.18,0,0,1-.72,3.25,6,6,0,0,1-2.1,2.38A6.77,6.77,0,0,1,645.3,464v3.17Z" style="fill:#2c2638"/><path d="M653.45,463.8v-3.68l6.64-10.21c.49-.76,1-1.49,1.34-2.19a11.48,11.48,0,0,0,1.07-2.13,6.26,6.26,0,0,0,.43-2.34,3.31,3.31,0,0,0-.51-2,1.68,1.68,0,0,0-1.45-.69,2.12,2.12,0,0,0-1.54.55,2.94,2.94,0,0,0-.74,1.47,8.81,8.81,0,0,0-.2,2v1.35H653.4v-1.35a11.76,11.76,0,0,1,.75-4.31,6.26,6.26,0,0,1,2.39-2.94,7.8,7.8,0,0,1,4.3-1.06,6.45,6.45,0,0,1,7.18,7.17,8.78,8.78,0,0,1-.49,3,13.82,13.82,0,0,1-1.35,2.69c-.55.86-1.14,1.76-1.77,2.68l-5.25,7.93h8.06v4.11Z" style="fill:#2c2638"/><path d="M671.35,468.44l-.4-1.71a4.63,4.63,0,0,0,1.59-.93,2.67,2.67,0,0,0,.69-2h-2.68v-4.93h4.89v4.35a6.15,6.15,0,0,1-1.05,3.67A4.23,4.23,0,0,1,671.35,468.44Z" style="fill:#2c2638"/><path d="M686,463.8v-6.38h-8.28v-4l7.07-16.88h6.06v16.93h2.69v4h-2.69v6.38Zm-4.17-10.36H686V441.87Z" style="fill:#2c2638"/><path d="M702.79,464.16a8.91,8.91,0,0,1-4-.79,4.81,4.81,0,0,1-2.19-2.35,10,10,0,0,1-.67-3.83v-.4h4.92a6.71,6.71,0,0,0,.36,2.55c.23.56.79.85,1.67.85a1.57,1.57,0,0,0,1.24-.5,3.57,3.57,0,0,0,.61-1.72,27.61,27.61,0,0,0,.16-3.28v-2.75a2.92,2.92,0,0,1-1.34,1.14,5.64,5.64,0,0,1-2.1.44,5.13,5.13,0,0,1-3.5-1.06,6,6,0,0,1-1.87-2.94,14.25,14.25,0,0,1-.55-4.11,14.86,14.86,0,0,1,.7-4.86,6.2,6.2,0,0,1,2.35-3.19,7.28,7.28,0,0,1,4.28-1.15,7.54,7.54,0,0,1,4.22,1.09,6.24,6.24,0,0,1,2.35,3.05,12.76,12.76,0,0,1,.75,4.58v9.94a16.48,16.48,0,0,1-.62,4.78,6,6,0,0,1-2.19,3.34A7.23,7.23,0,0,1,702.79,464.16Zm0-14.65a1.85,1.85,0,0,0,1.26-.42,4.29,4.29,0,0,0,.76-.83v-4.38a11.31,11.31,0,0,0-.16-1.92,3.39,3.39,0,0,0-.61-1.42,1.62,1.62,0,0,0-1.34-.54,1.55,1.55,0,0,0-1.28.58,3.46,3.46,0,0,0-.59,1.61,21.3,21.3,0,0,0-.15,2.52,19,19,0,0,0,.1,2.48,3.52,3.52,0,0,0,.52,1.67,1.64,1.64,0,0,0,1.53.65Z" style="fill:#2c2638"/><path d="M720.59,464.27a8,8,0,0,1-4.34-1,5.79,5.79,0,0,1-2.31-2.9,12,12,0,0,1-.7-4.28v-1h5.18v.9a13.07,13.07,0,0,0,.22,2.16,2.54,2.54,0,0,0,.66,1.34,1.87,1.87,0,0,0,1.34.45,1.83,1.83,0,0,0,1.34-.46,2.61,2.61,0,0,0,.61-1.34,10.49,10.49,0,0,0,.17-2.16,6.63,6.63,0,0,0-.62-3.19,2.51,2.51,0,0,0-2.41-1.15h-.92v-3.84h.81a2.82,2.82,0,0,0,2.48-1,5.73,5.73,0,0,0,.66-3.07,5.6,5.6,0,0,0-.47-2.52,1.78,1.78,0,0,0-1.76-.91,1.63,1.63,0,0,0-1.68,1,7.93,7.93,0,0,0-.44,2.6v1.22h-5.18v-1.51a8.67,8.67,0,0,1,.87-4,5.87,5.87,0,0,1,2.5-2.53,8,8,0,0,1,3.93-.89,8.51,8.51,0,0,1,4,.85,5.71,5.71,0,0,1,2.51,2.45,8.4,8.4,0,0,1,.86,4,7.39,7.39,0,0,1-1,4,4.45,4.45,0,0,1-2.45,2,4.4,4.4,0,0,1,1.79,1.11,5.22,5.22,0,0,1,1.21,2.07,10,10,0,0,1,.44,3.22,12.15,12.15,0,0,1-.71,4.35,5.91,5.91,0,0,1-2.32,3A7.5,7.5,0,0,1,720.59,464.27Z" style="fill:#2c2638"/><path d="M731.22,468.44l-.4-1.71a4.21,4.21,0,0,0,1.58-.93,2.7,2.7,0,0,0,.72-2h-2.69v-4.93h4.89v4.35a6,6,0,0,1-1.05,3.67A4.22,4.22,0,0,1,731.22,468.44Z" style="fill:#2c2638"/><path d="M745.34,464.16a8.73,8.73,0,0,1-4-.79,4.77,4.77,0,0,1-2.19-2.35,9.65,9.65,0,0,1-.67-3.83v-.4h4.91a6.92,6.92,0,0,0,.36,2.55c.23.56.78.85,1.67.85a1.57,1.57,0,0,0,1.24-.5,3.53,3.53,0,0,0,.61-1.72,23.94,23.94,0,0,0,.16-3.28v-2.75a3,3,0,0,1-1.34,1.14,5.5,5.5,0,0,1-2.08.44,5.11,5.11,0,0,1-3.5-1.06,5.83,5.83,0,0,1-1.87-2.94,14.27,14.27,0,0,1-.57-4.11,14.84,14.84,0,0,1,.72-4.86,6.22,6.22,0,0,1,2.33-3.19,7.34,7.34,0,0,1,4.3-1.15,7.56,7.56,0,0,1,4.22,1.09,6.34,6.34,0,0,1,2.35,3.05,13,13,0,0,1,.74,4.58v9.94a17.56,17.56,0,0,1-.61,4.78A6.16,6.16,0,0,1,749.9,463,7.22,7.22,0,0,1,745.34,464.16Zm0-14.65a1.88,1.88,0,0,0,1.26-.42,3.94,3.94,0,0,0,.75-.83v-4.38a10.37,10.37,0,0,0-.16-1.92,3.24,3.24,0,0,0-.62-1.42,1.55,1.55,0,0,0-1.27-.54,1.53,1.53,0,0,0-1.35.58,3.32,3.32,0,0,0-.59,1.61,17.76,17.76,0,0,0-.15,2.52,19,19,0,0,0,.1,2.48,3.52,3.52,0,0,0,.52,1.67,1.62,1.62,0,0,0,1.55.65Z" style="fill:#2c2638"/><path d="M763.73,463.8v-6.38h-8.28v-4l7.1-16.84h6.06v16.93h2.69v4h-2.69v6.38Zm-4.17-10.36h4.17V441.87Z" style="fill:#2c2638"/><path d="M780.33,464.27a7.69,7.69,0,0,1-4.37-1,5.18,5.18,0,0,1-2.07-2.93,15.69,15.69,0,0,1-.57-4.42h5a14.87,14.87,0,0,0,.18,2.5,3,3,0,0,0,.68,1.52,1.85,1.85,0,0,0,1.46.47,1.62,1.62,0,0,0,1.42-.75,4.58,4.58,0,0,0,.54-2c0-.87.09-1.9.09-3.1a16.8,16.8,0,0,0-.16-2.55,3.9,3.9,0,0,0-.66-1.76,1.79,1.79,0,0,0-1.5-.63,2,2,0,0,0-1.5.63,3.91,3.91,0,0,0-.85,1.83h-4.46l.38-15.5H786.5V441h-8.25l-.31,6a3.18,3.18,0,0,1,1.35-.87,6.65,6.65,0,0,1,2.06-.43,5,5,0,0,1,3.52.8,5.88,5.88,0,0,1,2.07,3,14.69,14.69,0,0,1,.67,4.79,24.74,24.74,0,0,1-.27,4,8.69,8.69,0,0,1-1,3.17,5.31,5.31,0,0,1-2.23,2.07A8.34,8.34,0,0,1,780.33,464.27Z" style="fill:#2c2638"/></g><g id="freepik--chart-5--inject-32"><rect x="630.42" y="390.7" width="15.13" height="31.48" style="fill:#2c2638;stroke:#2c2638;stroke-linecap:round;stroke-linejoin:round;stroke-width:1.3429340610142644px"/><rect x="650" y="329.32" width="15.13" height="92.85" style="fill:#92a8e3;stroke:#2c2638;stroke-linecap:round;stroke-linejoin:round;stroke-width:1.3429340610142644px"/><rect x="669.58" y="386.77" width="15.13" height="35.41" style="fill:#2c2638;stroke:#2c2638;stroke-linecap:round;stroke-linejoin:round;stroke-width:1.3429340610142644px"/><rect x="689.16" y="370.24" width="15.13" height="51.93" style="fill:#92a8e3;stroke:#2c2638;stroke-linecap:round;stroke-linejoin:round;stroke-width:1.3429340610142644px"/><rect x="708.74" y="382.83" width="15.13" height="39.35" style="fill:#2c2638;stroke:#2c2638;stroke-linecap:round;stroke-linejoin:round;stroke-width:1.3429340610142644px"/><rect x="728.32" y="370.24" width="15.13" height="51.93" style="fill:#92a8e3;stroke:#2c2638;stroke-linecap:round;stroke-linejoin:round;stroke-width:1.3429340610142644px"/><rect x="747.9" y="349.78" width="15.13" height="72.4" style="fill:#2c2638;stroke:#2c2638;stroke-linecap:round;stroke-linejoin:round;stroke-width:1.3429340610142644px"/><rect x="767.48" y="370.24" width="15.13" height="51.93" style="fill:#92a8e3;stroke:#2c2638;stroke-linecap:round;stroke-linejoin:round;stroke-width:1.3429340610142644px"/><rect x="787.06" y="400.14" width="15.13" height="22.04" style="fill:#2c2638;stroke:#2c2638;stroke-linecap:round;stroke-linejoin:round;stroke-width:1.3429340610142644px"/><line x1="630.42" y1="297.85" x2="680" y2="297.85" style="fill:none;stroke:#2c2638;stroke-linecap:round;stroke-linejoin:round;stroke-width:4.028802183042793px"/><line x1="630.42" y1="308.07" x2="712.26" y2="308.07" style="fill:none;stroke:#2c2638;stroke-linecap:round;stroke-linejoin:round;stroke-width:1.3429340610142644px"/></g><g id="freepik--chart-4--inject-32"><polyline points="799.82 182.73 891.1 182.73 891.1 292.11" style="fill:none;stroke:#2c2638;stroke-linecap:round;stroke-linejoin:round;stroke-width:1.3429340610142644px"/><polyline points="891.89 266.93 971.37 266.93 971.37 291.71" style="fill:none;stroke:#2c2638;stroke-linecap:round;stroke-linejoin:round;stroke-width:1.3429340610142644px"/><line x1="932.81" y1="267.71" x2="932.81" y2="291.71" style="fill:none;stroke:#2c2638;stroke-linecap:round;stroke-linejoin:round;stroke-width:1.3429340610142644px"/><polyline points="765.2 204.77 765.2 285.82 800.62 285.82" style="fill:none;stroke:#2c2638;stroke-linecap:round;stroke-linejoin:round;stroke-width:1.3429340610142644px"/><rect x="735.31" y="163.06" width="69.15" height="46.14" rx="7.6" style="fill:#92a8e3;stroke:#2c2638;stroke-linecap:round;stroke-linejoin:round;stroke-width:1.3429340610142644px"/><rect x="780.15" y="259.84" width="69.15" height="46.14" rx="7.6" style="fill:#2c2638;stroke:#2c2638;stroke-linecap:round;stroke-linejoin:round;stroke-width:1.3429340610142644px"/><rect x="864.35" y="207.12" width="69.15" height="46.14" rx="7.6" style="fill:#fff;stroke:#2c2638;stroke-linecap:round;stroke-linejoin:round;stroke-width:1.3429340610142644px"/><rect x="872.6" y="280.18" width="34.58" height="23.07" rx="5.95" style="fill:#92a8e3;stroke:#2c2638;stroke-linecap:round;stroke-linejoin:round;stroke-width:1.3429340610142644px"/><rect x="913.15" y="280.18" width="34.58" height="23.07" rx="5.95" style="fill:#92a8e3;stroke:#2c2638;stroke-linecap:round;stroke-linejoin:round;stroke-width:1.3429340610142644px"/><rect x="953.72" y="280.18" width="34.58" height="23.07" rx="5.95" style="fill:#92a8e3;stroke:#2c2638;stroke-linecap:round;stroke-linejoin:round;stroke-width:1.3429340610142644px"/><line x1="754.93" y1="185.38" x2="783.78" y2="185.38" style="fill:none;stroke:#2c2638;stroke-linecap:round;stroke-linejoin:round;stroke-width:1.3429340610142644px"/><line x1="800.13" y1="282.51" x2="828.98" y2="282.51" style="fill:none;stroke:#fff;stroke-linecap:round;stroke-linejoin:round;stroke-width:1.3429340610142644px"/><line x1="800.13" y1="288.29" x2="828.98" y2="288.29" style="fill:none;stroke:#fff;stroke-linecap:round;stroke-linejoin:round;stroke-width:1.3429340610142644px"/><line x1="881.88" y1="232.5" x2="922.27" y2="232.5" style="fill:none;stroke:#2c2638;stroke-linecap:round;stroke-linejoin:round;stroke-width:1.3429340610142644px"/><line x1="881.88" y1="227.12" x2="922.27" y2="227.12" style="fill:none;stroke:#2c2638;stroke-linecap:round;stroke-linejoin:round;stroke-width:1.3429340610142644px"/></g><g id="freepik--chart-3--inject-32"><line x1="317.29" y1="217.87" x2="317.29" y2="227.94" style="fill:none;stroke:#2c2638;stroke-linecap:round;stroke-linejoin:round;stroke-width:1.3429340610142644px"/><line x1="342.19" y1="217.87" x2="342.19" y2="227.94" style="fill:none;stroke:#2c2638;stroke-linecap:round;stroke-linejoin:round;stroke-width:1.3429340610142644px"/><line x1="367.08" y1="217.87" x2="367.08" y2="227.94" style="fill:none;stroke:#2c2638;stroke-linecap:round;stroke-linejoin:round;stroke-width:1.3429340610142644px"/><line x1="391.97" y1="217.87" x2="391.97" y2="227.94" style="fill:none;stroke:#2c2638;stroke-linecap:round;stroke-linejoin:round;stroke-width:1.3429340610142644px"/><line x1="416.87" y1="217.87" x2="416.87" y2="227.94" style="fill:none;stroke:#2c2638;stroke-linecap:round;stroke-linejoin:round;stroke-width:1.3429340610142644px"/><line x1="441.77" y1="217.87" x2="441.77" y2="227.94" style="fill:none;stroke:#2c2638;stroke-linecap:round;stroke-linejoin:round;stroke-width:1.3429340610142644px"/><line x1="466.67" y1="217.87" x2="466.67" y2="227.94" style="fill:none;stroke:#2c2638;stroke-linecap:round;stroke-linejoin:round;stroke-width:1.3429340610142644px"/><line x1="491.57" y1="217.87" x2="491.57" y2="227.94" style="fill:none;stroke:#2c2638;stroke-linecap:round;stroke-linejoin:round;stroke-width:1.3429340610142644px"/><line x1="516.46" y1="217.87" x2="516.46" y2="227.94" style="fill:none;stroke:#2c2638;stroke-linecap:round;stroke-linejoin:round;stroke-width:1.3429340610142644px"/><line x1="541.27" y1="217.87" x2="541.27" y2="227.94" style="fill:none;stroke:#2c2638;stroke-linecap:round;stroke-linejoin:round;stroke-width:1.3429340610142644px"/><line x1="566.17" y1="217.87" x2="566.17" y2="227.94" style="fill:none;stroke:#2c2638;stroke-linecap:round;stroke-linejoin:round;stroke-width:1.3429340610142644px"/><line x1="591.06" y1="217.87" x2="591.06" y2="227.94" style="fill:none;stroke:#2c2638;stroke-linecap:round;stroke-linejoin:round;stroke-width:1.3429340610142644px"/><line x1="615.88" y1="217.87" x2="615.88" y2="227.94" style="fill:none;stroke:#2c2638;stroke-linecap:round;stroke-linejoin:round;stroke-width:1.3429340610142644px"/><line x1="640.78" y1="217.87" x2="640.78" y2="227.94" style="fill:none;stroke:#2c2638;stroke-linecap:round;stroke-linejoin:round;stroke-width:1.3429340610142644px"/><line x1="665.68" y1="217.87" x2="665.68" y2="227.94" style="fill:none;stroke:#2c2638;stroke-linecap:round;stroke-linejoin:round;stroke-width:1.3429340610142644px"/><line x1="309.34" y1="217.87" x2="670.71" y2="217.87" style="fill:none;stroke:#2c2638;stroke-linecap:round;stroke-linejoin:round;stroke-width:1.3429340610142644px"/><polyline points="328.41 209.94 352.77 192.45 377.15 140.81 403.11 193.51 424.82 165.97 450.78 185.04 476.74 113.85 503.22 162.78 525.48 137.35 546.67 169.86 576.94 152.38 601.23 163.47 625.11 152.38 657.07 114.44" style="fill:none;stroke:#2c2638;stroke-linecap:round;stroke-linejoin:round;stroke-width:4.028802183042793px"/><polygon points="616.75 80.06 657.67 80.06 657.67 100.53 647.05 100.53 655.31 113.11 640.03 100.53 616.75 100.53 616.75 80.06" style="fill:#2c2638"/><polygon points="616.75 207.96 657.67 207.96 657.67 187.51 647.05 187.51 655.31 174.91 640.03 187.51 616.75 187.51 616.75 207.96" style="fill:#92a8e3"/><polyline points="326.72 187.43 356.52 165.07 379.57 183.37 402.6 163.71 425.63 184.72 456.13 146.11 479.83 159.66 502.87 185.4 525.9 157.62 552.33 140.01 577.39 171.85 602.47 179.3 622.78 177.26 655.31 162.37" style="fill:none;stroke:#92a8e3;stroke-linecap:round;stroke-linejoin:round;stroke-width:4.028802183042793px"/></g><g id="freepik--chart-2--inject-32"><path d="M39.53,286.36a46,46,0,0,0,77.13-10.66" style="fill:none;stroke:#9e9e9e;stroke-miterlimit:10;stroke-width:12.086406549128379px"/><path d="M34.45,234.55a46,46,0,0,0,5.08,51.81" style="fill:none;stroke:#92a8e3;stroke-miterlimit:10;stroke-width:12.086406549128379px"/><path d="M116.66,275.7a46,46,0,0,0-82.21-41.15" style="fill:none;stroke:#2c2638;stroke-miterlimit:10;stroke-width:12.086406549128379px"/><path d="M150.77,234.3a5.92,5.92,0,1,0-5.92,5.92h0a5.91,5.91,0,0,0,5.92-5.9Z" style="fill:#2c2638"/><path d="M150.77,259.76a5.92,5.92,0,1,0-5.92,5.92h0a5.91,5.91,0,0,0,5.92-5.89Z" style="fill:#9e9e9e"/><path d="M150.77,288.32a5.92,5.92,0,1,0-5.92,5.93h0A5.93,5.93,0,0,0,150.77,288.32Z" style="fill:#92a8e3"/><line x1="159.66" y1="235.04" x2="221.82" y2="235.04" style="fill:none;stroke:#2c2638;stroke-linecap:round;stroke-linejoin:round;stroke-width:1.3429340610142644px"/><line x1="159.66" y1="259.46" x2="221.82" y2="259.46" style="fill:none;stroke:#2c2638;stroke-linecap:round;stroke-linejoin:round;stroke-width:1.3429340610142644px"/><line x1="159.66" y1="288.32" x2="221.82" y2="288.32" style="fill:none;stroke:#2c2638;stroke-linecap:round;stroke-linejoin:round;stroke-width:1.3429340610142644px"/></g><g id="freepik--chart-1--inject-32"><rect x="26.62" y="372.79" width="175.92" height="13.62" style="fill:none;stroke:#2c2638;stroke-linecap:round;stroke-linejoin:round;stroke-width:1.3429340610142644px"/><rect x="26.62" y="394.36" width="175.92" height="13.62" style="fill:none;stroke:#2c2638;stroke-linecap:round;stroke-linejoin:round;stroke-width:1.3429340610142644px"/><rect x="26.62" y="415.93" width="175.92" height="13.62" style="fill:none;stroke:#2c2638;stroke-linecap:round;stroke-linejoin:round;stroke-width:1.3429340610142644px"/><rect x="26.62" y="437.5" width="175.92" height="13.62" style="fill:none;stroke:#2c2638;stroke-linecap:round;stroke-linejoin:round;stroke-width:1.3429340610142644px"/><rect x="26.62" y="459.05" width="175.92" height="13.62" style="fill:none;stroke:#2c2638;stroke-linecap:round;stroke-linejoin:round;stroke-width:1.3429340610142644px"/><line x1="29.52" y1="362.83" x2="79.08" y2="362.83" style="fill:none;stroke:#2c2638;stroke-linecap:round;stroke-linejoin:round;stroke-width:4.028802183042793px"/><line x1="29.52" y1="373.05" x2="111.35" y2="373.05" style="fill:none;stroke:#2c2638;stroke-linecap:round;stroke-linejoin:round;stroke-width:1.3429340610142644px"/><rect x="26.62" y="392.08" width="175.92" height="13.62" style="fill:none;stroke:#2c2638;stroke-linecap:round;stroke-linejoin:round;stroke-width:1.3429340610142644px"/><rect x="26.62" y="413.63" width="175.92" height="13.62" style="fill:none;stroke:#2c2638;stroke-linecap:round;stroke-linejoin:round;stroke-width:1.3429340610142644px"/><rect x="26.62" y="435.2" width="175.92" height="13.62" style="fill:none;stroke:#2c2638;stroke-linecap:round;stroke-linejoin:round;stroke-width:1.3429340610142644px"/><rect x="26.62" y="456.77" width="175.92" height="13.62" style="fill:none;stroke:#2c2638;stroke-linecap:round;stroke-linejoin:round;stroke-width:1.3429340610142644px"/><rect x="26.62" y="478.33" width="175.92" height="13.62" style="fill:none;stroke:#2c2638;stroke-linecap:round;stroke-linejoin:round;stroke-width:1.3429340610142644px"/><rect x="26.62" y="392.08" width="65.4" height="13.62" style="fill:#2c2638;stroke:#2c2638;stroke-linecap:round;stroke-linejoin:round;stroke-width:1.3429340610142644px"/><rect x="26.62" y="413.63" width="88.67" height="13.62" style="fill:#92a8e3;stroke:#2c2638;stroke-linecap:round;stroke-linejoin:round;stroke-width:1.3429340610142644px"/><rect x="26.62" y="435.2" width="33.67" height="13.62" style="fill:#2c2638;stroke:#2c2638;stroke-linecap:round;stroke-linejoin:round;stroke-width:1.3429340610142644px"/><rect x="26.62" y="456.77" width="144.71" height="13.62" style="fill:#92a8e3;stroke:#2c2638;stroke-linecap:round;stroke-linejoin:round;stroke-width:1.3429340610142644px"/><rect x="26.62" y="478.33" width="107.7" height="13.62" style="fill:#2c2638;stroke:#2c2638;stroke-linecap:round;stroke-linejoin:round;stroke-width:1.3429340610142644px"/></g><path d="M637,928.06s46.81,11.79,57,8.32-31.45-25-31.45-25Z" style="opacity:0.3;isolation:isolate"/><ellipse cx="511.65" cy="823.62" rx="20.42" ry="3.6" style="opacity:0.3;isolation:isolate"/><ellipse cx="471.32" cy="896" rx="20.42" ry="3.6" style="opacity:0.3;isolation:isolate"/><ellipse cx="683.31" cy="874.29" rx="20.42" ry="3.6" style="opacity:0.3;isolation:isolate"/><ellipse cx="319.84" cy="840.12" rx="20.42" ry="3.6" style="opacity:0.3;isolation:isolate"/><g id="chair"><path d="M337.56,751.34l-.48,6.43-24.22,82.69a3.8,3.8,0,0,1-3.65,2.73H302a3.8,3.8,0,0,1-3.75-4.42l15.06-91.48Z" style="fill:#394257;stroke:#263238;stroke-linecap:round;stroke-linejoin:round;stroke-width:2.0232537388801575px"/><path d="M460.51,899.44h-5.93a3.8,3.8,0,0,1-3.8-3.72l-2.35-114.44H480.8l-16.52,114.9A3.81,3.81,0,0,1,460.51,899.44Z" style="fill:#394257;stroke:#263238;stroke-linecap:round;stroke-linejoin:round;stroke-width:2.0232537388801575px"/><path d="M672.28,876.49l-6.23.19a3.8,3.8,0,0,1-3.83-3L639.83,771.16h28.73L676,872.42A3.8,3.8,0,0,1,672.28,876.49Z" style="fill:#394257;stroke:#263238;stroke-linecap:round;stroke-linejoin:round;stroke-width:2.0232537388801575px"/><path d="M499.28,825.79h-3.41a3.79,3.79,0,0,1-3.8-3.73l-.75-43.21h17l-5.26,43.6A3.8,3.8,0,0,1,499.28,825.79Z" style="fill:#394257;stroke:#263238;stroke-linecap:round;stroke-linejoin:round;stroke-width:2.0232537388801575px"/><path d="M752.73,605.66c-1.44,15.79-4,52.21-14.21,90.73-6.15,23.21-15.09,47.17-28.22,67.84a23.15,23.15,0,0,1-16.38,10.45c-62.3,8.49-182.69,15.94-238.81,15.36a69.45,69.45,0,0,1-13.58-1.48,67.45,67.45,0,0,1-7-1.83c-22.76-7.27-82.24-25.86-130.62-37.49a25.33,25.33,0,0,1-18.29-17.09c-11.15-35.9-37.81-135.89-25.31-237.09a28,28,0,0,1,15.08-21.52C308,457,401,421.47,548,459.18l79.32,72,100.35,38.84S755.15,579,752.73,605.66Z" style="fill:#fff;stroke:#263238;stroke-linecap:round;stroke-linejoin:round;stroke-width:2.0232537388801575px"/><path d="M361,566.82c-27.81,15.32-71.31,1.44-71.31,1.44l23.14-19,17.65-1.79C335.21,554.85,344.14,562.59,361,566.82Z" style="opacity:0.3;isolation:isolate"/><path d="M738.52,696.39c-6.15,23.21-15.09,47.17-28.22,67.84a23.15,23.15,0,0,1-16.38,10.45c-62.3,8.49-182.69,15.94-238.81,15.36a69.45,69.45,0,0,1-13.58-1.48C410,744.73,417.1,576.05,417.1,576.05l148.06-23.74s25.58,8.52,41.49,37.06,130.94,101,130.94,101Z" style="opacity:0.3;isolation:isolate"/><path d="M676,649.07l9.92,7L676,653.32c-17.62-4.25-39.7-1.46-49.83-.07a40.13,40.13,0,0,0-10.95,3.12l-12.32,5.53a40.06,40.06,0,0,1-13.27,3.38l-47,3.61a39.61,39.61,0,0,1-16.3-2.14l-1.87-.65V558.84l40.71-6.53s25.58,8.52,41.49,37.06C614.43,603.32,645.85,627.74,676,649.07Z" style="opacity:0.3;isolation:isolate"/><path d="M658,719c-11.33,3.24-125.44,17-163.48,4l-12.67-4.82h0c-9.6-14-18.62-36.59-25.65-57.28,0,0,36.07-5.59,68.22,5.19l1.87.65a39.61,39.61,0,0,0,16.3,2.14l47-3.61a40.06,40.06,0,0,0,13.27-3.38l12.32-5.53a40.13,40.13,0,0,1,10.95-3.12c10.13-1.39,32.21-4.18,49.83.07,9.29,2.25,17.34,6.45,21.72,13.85C713.07,693.07,669.37,715.73,658,719Z" style="fill:none;stroke:#263238;stroke-linecap:round;stroke-linejoin:round;stroke-width:2.0232537388801575px"/><path d="M325.42,528.78s-3.24,28.32,35.61,38S417.68,554.68,442,613c0,0,24.27,97.11,49.36,115.73" style="fill:none;stroke:#263238;stroke-linecap:round;stroke-linejoin:round;stroke-width:2.0232537388801575px"/></g><g id="center"><path d="M450.74,608.38s2.81-29.48,3.92-30.52,70.13-26,70.13-26,22.37,17.69,20.81,21.86-3.64,25.66-13.18,27.92S450.74,608.38,450.74,608.38Z" style="fill:#23262d"/><path d="M443.28,606.65s10.41-23,81.17-49.14V482.24l-35.61-71.91-42.26-11.1L429.06,397l-24,8.84-41.86,6.77,20.25,99.66,18.25,48.61L424,580.11Z" style="fill:#fff;stroke:#263238;stroke-linecap:round;stroke-linejoin:round;stroke-width:1.618602991104126px"/><path d="M471.53,561.77s-38.33,16.12-41.8,23.75,2.6,1.57,2.6,1.57,39.37-22.9,46-20.64S471.53,561.77,471.53,561.77Z" style="opacity:0.3;isolation:isolate"/><path d="M410,510.08s15.61,18.18,16.65,32.75c0,0-3.37-3.39-13.83-6.72s-8.55-21-8.55-21Z" style="opacity:0.3;isolation:isolate"/><path d="M406.17,552.31s21.16,5.6,21.16,17.57c0,0,20.12-11,30.87-8.79,0,0-22.49,19-30.7,21.45-4.85,1.46-19.75-17.8-21.33-18.56S406.17,552.31,406.17,552.31Z" style="opacity:0.3;isolation:isolate"/><g id="tie"><path d="M389.64,409.87,405,415.53s-5.74,4.74-6.28,4.63-16.38-2.43-16.38-2.43Z" style="fill:#92e3a9;stroke:#263238;stroke-linecap:round;stroke-linejoin:round;stroke-width:0.809301495552063px"/><polygon points="426.29 401.66 420.28 412.3 426.9 414.57 434.96 402.82 426.29 401.66" style="fill:#92e3a9;stroke:#263238;stroke-linecap:round;stroke-linejoin:round;stroke-width:0.809301495552063px"/><path d="M411.38,425.07s5.89,41.1,12.13,53.24c4.85,9.43,7.4,31.4,8.3,40.75a22,22,0,0,0,2.75,8.79c4.86,8.6,16.87,27.49,33.26,36.72a21.73,21.73,0,0,1,5.33,4.15C491.86,589.12,496,599,496,599l32.14-8.32-20.24-24.51s-10-15.93-20.93-19.83a21,21,0,0,1-6.63-4c-2.2-1.9-5.18-4.43-8.39-7-6.48-5.09-15.26-18.27-13.88-26.83S445.13,454,435.89,445.94s-11.57-13.64-11.68-24.05Z" style="fill:#92e3a9;stroke:#263238;stroke-linecap:round;stroke-linejoin:round;stroke-width:0.809301495552063px"/><path d="M395.19,418.89l16.65,11s7.4-6.82,13.52-2.77c0,0,.07-16.65,5.32-18.16C430.68,408.94,413.57,407.09,395.19,418.89Z" style="fill:#92e3a9;stroke:#263238;stroke-linecap:round;stroke-linejoin:round;stroke-width:0.809301495552063px"/></g><path d="M376,430.8l5.12-1.89s13.39-19,26.24-19.63,14.77-5.54,14.77-5.54l5.49,1.71s11.5,7.31,12.89,9.74c0,0,3.64-12.57,10.75-2.9s2-10.63,2-10.63l-8.9-6.07-7.07-4.37-9.2-3.33-15.82,12.72-25.14,6.6-23-4Z" style="opacity:0.3;isolation:isolate"/><path d="M410,494.85s10.58,7.22,14.22,10.34" style="fill:#fff;stroke:#263238;stroke-linecap:round;stroke-linejoin:round;stroke-width:1.618602991104126px"/><path d="M412.81,536.11a39.88,39.88,0,0,1,13.83,6.72c6.93,5.2,9.53,8.15,15.26,9" style="fill:none;stroke:#263238;stroke-linecap:round;stroke-linejoin:round;stroke-width:1.618602991104126px"/><path d="M471.73,502.13s18.46,4.8,23.1,14.15" style="fill:none;stroke:#263238;stroke-linecap:round;stroke-linejoin:round;stroke-width:1.618602991104126px"/><path d="M503.17,536.11s-9.46,1-10.63,6.72" style="fill:none;stroke:#263238;stroke-linecap:round;stroke-linejoin:round;stroke-width:1.618602991104126px"/></g><g id="left"><path id="SVGID-2" data-name="SVGID" d="M761,579c-.58,18.41-4.28,26.26-8.09,30.65a6.06,6.06,0,0,1-.55.57c.14-1.65.28-3.17.4-4.53,1.25-13.78-5.47-22.82-12.26-28.34a22.73,22.73,0,0,0-5-5.7,11.85,11.85,0,0,1,1.6,3.19c1.18,3.92-1.89,6.47-6.11,5.71-4.62-.84-11.55-8.33-11.55-8.33-14.35.93-21-5.08-21-5.08L685.61,566a94.23,94.23,0,0,1,3.15-11c2.13-5.9,5.22-11.86,8.88-11.14,7.05,1.4,21,8.1,21,8.1l25.44,5.66a6,6,0,0,1,3.4,2.14L759.65,575A6.13,6.13,0,0,1,761,579Z" style="fill:#fff"/><g style="clip-path:url(#clip-path)"><path d="M732.57,568a135.48,135.48,0,0,0-10.08-9.58s21.79,9.7,28.59,20.86.94,32.33.94,32.33l-13.59-6.13-8.07-11.91,9.48-15.64Z" style="opacity:0.3;isolation:isolate"/><path d="M711.72,549.5a9.38,9.38,0,0,0-2.12-.25c-6.82,0-12.35,7.56-12.35,16.9a21.13,21.13,0,0,0,2.52,10.23l-.29.62-16.18-4.11-7.63-6.48L697.18,542l8.29,2.81Z" style="fill:#23262d"/></g><path id="SVGID-3" data-name="SVGID" d="M761,579c-.58,18.41-4.28,26.26-8.09,30.65a6.06,6.06,0,0,1-.55.57c.14-1.65.28-3.17.4-4.53,1.25-13.78-5.47-22.82-12.26-28.34a22.73,22.73,0,0,0-5-5.7,11.85,11.85,0,0,1,1.6,3.19c1.18,3.92-1.89,6.47-6.11,5.71-4.62-.84-11.55-8.33-11.55-8.33-14.35.93-21-5.08-21-5.08L685.61,566a94.23,94.23,0,0,1,3.15-11c2.13-5.9,5.22-11.86,8.88-11.14,7.05,1.4,21,8.1,21,8.1l25.44,5.66a6,6,0,0,1,3.4,2.14L759.65,575A6.13,6.13,0,0,1,761,579Z" style="fill:none;stroke:#263238;stroke-linecap:round;stroke-linejoin:round;stroke-width:1.618602991104126px"/><path d="M732.57,568a135.48,135.48,0,0,0-10.08-9.58" style="fill:#fff;stroke:#263238;stroke-linecap:round;stroke-linejoin:round;stroke-width:1.618602991104126px"/><path d="M746.86,568a24,24,0,0,0-1.13,7.59" style="fill:#fff;stroke:#263238;stroke-linecap:round;stroke-linejoin:round;stroke-width:1.618602991104126px"/><path d="M753.71,577.94a3.56,3.56,0,0,0-3.38,3.47" style="fill:#fff;stroke:#263238;stroke-linecap:round;stroke-linejoin:round;stroke-width:1.618602991104126px"/><path d="M737.58,561.9a7.36,7.36,0,0,0-1.56,7.2" style="fill:#fff;stroke:#263238;stroke-linecap:round;stroke-linejoin:round;stroke-width:1.618602991104126px"/><path d="M436.36,390s27.5,35.8,39.76,75.81,28.67,79.08,46.71,87.4l35.61-24.45,25.32,17.86,11.1.35s6.82,8.78,29.71,12.48c15.39,2.49,22.63,6.34,25.72,8.59a9.33,9.33,0,0,0,5.51,1.82s22.73,4.25,31.66.78c-3-4.13-.86-21.59,14.8-27.37,0,0-14.57-7.4-15.72-9.94-.68-1.49-3.87-1.24-6.41-.78a13.15,13.15,0,0,1-7.68-.91c-3.22-1.4-7.18-3.56-8.11-5.94-.8-2.07-3-2.26-5-1.92a13.12,13.12,0,0,1-8.82-1.7l-29.35-17.2a13.6,13.6,0,0,0-4.7-1.69c-.61-.1-1.28-.19-2-.25a13.58,13.58,0,0,1-7.65-3.33,40.25,40.25,0,0,0-14.13-7.9,13.19,13.19,0,0,1-6.68-4.89c-3-4.16-8.27-10.5-13.81-12.26a13.19,13.19,0,0,1-4.69-2.76l-.24-.21a13.71,13.71,0,0,1-4.24-7.25c-.71-3.13-2.17-7.18-5-8.7a17.07,17.07,0,0,1-6.22-5.27c-8.09-11.65-29.87-41.63-45.59-50a7.88,7.88,0,0,0-4-.93l-22.9.93a23,23,0,0,1-8.16-1.1c-3.86-1.27-10.35-2.88-16.48-2C444.6,398.79,436.36,390,436.36,390Z" style="fill:#394257"/><g style="clip-path:url(#clip-path-2)"><path d="M686.53,533.34c-.67-1.48-3.86-1.23-6.41-.77a13.24,13.24,0,0,1-7.68-.91c-3.21-1.4-7.17-3.56-8.1-5.95-.81-2.06-3-2.25-5-1.91a13.08,13.08,0,0,1-8.82-1.71L621.21,504.9a13.6,13.6,0,0,0-4.7-1.69c-.61-.09-1.28-.19-2-.25a13.6,13.6,0,0,1-7.65-3.32,39.94,39.94,0,0,0-14.13-7.9,13.23,13.23,0,0,1-6.68-4.91c-3-4.16-8.27-10.49-13.81-12.25a13.19,13.19,0,0,1-4.69-2.76l-.24-.21a13.72,13.72,0,0,1-4.24-7.24c-.72-3.14-2.17-7.19-5-8.71a17.24,17.24,0,0,1-6.22-5.27c-8.09-11.65-29.87-41.63-45.59-50a7.9,7.9,0,0,0-4-.93l-22.89.94a23.31,23.31,0,0,1-8.17-1.11c-.68-.23-1.45-.46-2.29-.7,0,3.5,3.44,6.32,3.44,6.37s18.55,15.38,26.77,70.55c1.56,10.44,2.87,19,4,25.93h0a.87.87,0,0,0,0,.11c0,.11,0,.29.08.54l.15,1c0,.26.09.54.14.85,1.28,8.32,5.53,35.24,7,38.86v0h0c.51.63,1,1.23,1.52,1.8.26.31.54.61.81.9a41,41,0,0,0,4.61,4.34l.5.4c.37.29.75.57,1.13.83a6.18,6.18,0,0,0,.53.36l.23.15.61.39a25.54,25.54,0,0,0,2.35,1.26l35.61-24.45,25.31,17.86,11.11.35s6.82,8.79,29.71,12.49c15.39,2.48,22.63,6.33,25.72,8.59a9.34,9.34,0,0,0,5.51,1.81s40.84,17,38.37,9.48c-2.17-6.59-7.4-34.45,8.09-36.07C702.26,543.29,687.69,535.89,686.53,533.34Z" style="opacity:0.3;isolation:isolate"/></g><path d="M436.36,390s27.5,35.8,39.76,75.81,28.67,79.08,46.71,87.4l35.61-24.45,25.32,17.86,11.1.35s6.82,8.78,29.71,12.48c15.39,2.49,22.63,6.34,25.72,8.59a9.33,9.33,0,0,0,5.51,1.82s22.73,4.25,31.66.78c-3-4.13-.86-21.59,14.8-27.37,0,0-14.57-7.4-15.72-9.94-.68-1.49-3.87-1.24-6.41-.78a13.15,13.15,0,0,1-7.68-.91c-3.22-1.4-7.18-3.56-8.11-5.94-.8-2.07-3-2.26-5-1.92a13.12,13.12,0,0,1-8.82-1.7l-29.35-17.2a13.6,13.6,0,0,0-4.7-1.69c-.61-.1-1.28-.19-2-.25a13.58,13.58,0,0,1-7.65-3.33,40.25,40.25,0,0,0-14.13-7.9,13.19,13.19,0,0,1-6.68-4.89c-3-4.16-8.27-10.5-13.81-12.26a13.19,13.19,0,0,1-4.69-2.76l-.24-.21a13.71,13.71,0,0,1-4.24-7.25c-.71-3.13-2.17-7.18-5-8.7a17.07,17.07,0,0,1-6.22-5.27c-8.09-11.65-29.87-41.63-45.59-50a7.88,7.88,0,0,0-4-.93l-22.9.93a23,23,0,0,1-8.16-1.1c-3.86-1.27-10.35-2.88-16.48-2C444.6,398.79,436.36,390,436.36,390Z" style="fill:none;stroke:#263238;stroke-linecap:round;stroke-linejoin:round;stroke-width:2.0232537388801575px"/><path d="M453.23,403.16l6.24,5.78,9.83-7.11s21.5,17.87,29.83,73.71,9.71,57.05,9.71,57.05" style="fill:none;stroke:#23262d;stroke-miterlimit:10;stroke-width:2.0232537388801575px"/><path d="M513.35,410.33c21.1,23.58,21.13,67.17,35.84,101.92" style="fill:none;stroke:#23262d;stroke-miterlimit:10;stroke-width:2.0232537388801575px"/><path d="M577.44,521.32s13-17,27.71-19.77" style="fill:none;stroke:#23262d;stroke-miterlimit:10;stroke-width:2.0232537388801575px"/><path d="M651.39,551a1.22,1.22,0,0,0,0-2.43,1.22,1.22,0,0,0,0,2.43Z" style="fill:#23262d"/><ellipse cx="708.39" cy="547.46" rx="1.87" ry="8.4" transform="translate(-54.42 1016.12) rotate(-69.26)" style="fill:#23262d"/><path d="M552.54,458.43a38.75,38.75,0,0,1-9.48,7.74" style="fill:none;stroke:#263238;stroke-miterlimit:10;stroke-width:2.0232537388801575px"/></g><g id="r-leg"><path d="M594.74,819.38s7.4,21.27,6.24,26.12,2.37,19.25,5.67,21.74c9.82,7.41,24.16-1.85,24.16-1.85l12-8.79s1.62-8.78,0-14.33-14.1-27.29-15-34.46S594.74,819.38,594.74,819.38Z" style="fill:#23262d;stroke:#394257;stroke-linecap:round;stroke-linejoin:round;stroke-width:2.0232537388801575px"/><path d="M642.83,814.52s-43.93,16.65-61,12.49L569.53,677.14l-23-5.23-.31-3.3-3.61.28a39.61,39.61,0,0,1-16.3-2.14c-26.49-9.46-56.22-7.4-66.42-6.3l-7.59-.86-16.66-60.23s38.16-19.43,95.39-6.94l43.35,1.38h18.27s32.14-4,27.05,47.76S629.88,789.54,642.83,814.52Z" style="fill:#394257"/><g style="clip-path:url(#clip-path-3)"><path d="M430.1,628.84s72.15-16.65,112.38,18,42.09-22,42.09-22l11.65-31s11,24.16,11.93,69.48,11.92,85.87,19.37,93.8-29.08,4.24-45.73-41.08-111.91-35.61-111.91-35.61l-26.83-3.3Z" style="opacity:0.3"/></g><path d="M642.83,814.52s-43.93,16.65-61,12.49L569.53,677.14l-23-5.23-.31-3.3-3.61.28a39.61,39.61,0,0,1-16.3-2.14c-26.49-9.46-56.22-7.4-66.42-6.3l-7.59-.86-16.66-60.23s38.16-19.43,95.39-6.94l43.35,1.38h18.27s32.14-4,27.05,47.76S629.88,789.54,642.83,814.52Z" style="fill:none;stroke:#23262d;stroke-linecap:round;stroke-linejoin:round;stroke-width:2.0232537388801575px"/><path d="M596.36,887.82s-1.05-9.51,7.45-23.14c0,0,5.27,9.73,33.48-8.31,0,0,6.93-4.85,10.4,1.16s12,30.75,34.92,45.32c0,0,13.87,8.67,10.75,17.69,0,0,6.58,1.73.46,5.89s-58.85,6.94-72.26-4.16c0,0-11.56-17.69-15.37-19.19v7.75l-12.61-7.17.81-14.45Z" style="fill:#23262d"/><g style="clip-path:url(#clip-path-4)"><path d="M626.07,849.09s17.69,37.8,21.85,46.48c0,0-36.07-6.59-26.7,2.08s11.44,12.83,19.42,12.83,39.23,4.21,35.38,11.79,13.52,26-22.2,17-54.22-9.71-60.24-19.77S589.31,889,589.31,889s-1.39-19.43,1.73-22.9S626.07,849.09,626.07,849.09Z" style="fill:#394257;opacity:0.5"/></g><path d="M596.36,887.82s-1.05-9.51,7.45-23.14c0,0,5.27,9.73,33.48-8.31,0,0,6.93-4.85,10.4,1.16s12,30.75,34.92,45.32c0,0,13.87,8.67,10.75,17.69,0,0,6.58,1.73.46,5.89s-58.85,6.94-72.26-4.16c0,0-11.56-17.69-15.37-19.19v7.75l-12.61-7.17.81-14.45Z" style="fill:none;stroke:#394257;stroke-linecap:round;stroke-linejoin:round;stroke-width:2.0232537388801575px"/><path d="M651,885.16s-6.2.93-7.49,3.47" style="fill:#23262d;stroke:#394257;stroke-linecap:round;stroke-linejoin:round;stroke-width:2.0232537388801575px"/><path d="M648.27,878.8s-7.28-.46-9,2.89" style="fill:#23262d;stroke:#394257;stroke-linecap:round;stroke-linejoin:round;stroke-width:2.0232537388801575px"/><path d="M644.33,870.86s-7.28-.46-9,2.89" style="fill:#23262d;stroke:#394257;stroke-linecap:round;stroke-linejoin:round;stroke-width:2.0232537388801575px"/><path d="M654.74,884.47a26.78,26.78,0,0,1,3.7-.7" style="fill:#23262d;stroke:#394257;stroke-linecap:round;stroke-linejoin:round;stroke-width:2.0232537388801575px"/><path d="M651,878.41a27.12,27.12,0,0,1,3.7-.69" style="fill:#23262d;stroke:#394257;stroke-linecap:round;stroke-linejoin:round;stroke-width:2.0232537388801575px"/><path d="M647.74,870.54a27.12,27.12,0,0,1,3.7-.69" style="fill:#23262d;stroke:#394257;stroke-linecap:round;stroke-linejoin:round;stroke-width:2.0232537388801575px"/><path d="M689.77,921.58s-41.48,7.36-61.36-1.14c-.57-.24-1.13-.47-1.71-.66-2-.67-8.35-3.38-12.77-12.31" style="fill:none;stroke:#23262d;stroke-linecap:round;stroke-linejoin:round;stroke-width:2.0232537388801575px"/><path d="M469.76,617.05s23-10.26,38.15-6.86" style="fill:none;stroke:#23262d;stroke-linecap:round;stroke-miterlimit:10;stroke-width:2.0232537388801575px"/><path d="M506.06,625.37s-25.32,26-37.8,29.83" style="fill:none;stroke:#23262d;stroke-linecap:round;stroke-miterlimit:10;stroke-width:2.0232537388801575px"/><path d="M593,772.44s10.49,22.54,10.83,30.87a46.05,46.05,0,0,0,2.78,14.22" style="fill:#394257;stroke:#23262d;stroke-linecap:round;stroke-linejoin:round;stroke-width:2.0232537388801575px"/></g><g id="right"><path d="M454.66,592.83,453.23,599l-15.33,4.81C415.6,557,397.68,576,361,566.82c-13.14-3.29-21.46-8.7-26.73-14.43a34,34,0,0,1-3-3.81l-5.64.67-8.26-6.94h0c7.59,10.12,6.28,13,6.28,13s-26,26.7-42.32,6.58-1.73-45.78-1.73-45.78c-1.05-11.79,10.15-26,10.15-26-3.37-8,1.64-9.71.25-15.25s3.47-16.19,3.23-20.58c-.13-2.63,1.1-10.84,2.11-17a13.66,13.66,0,0,1,8-10.32c13.61-5.92,43.37-18.93,48-21.46,6.07-3.29,16-19.59,16-19.59l9,32.79s23.15,48.66,27.2,65.65c5,21,14.77,73.19,9,86.43C417.85,576.36,454.66,592.83,454.66,592.83Z" style="fill:#394257"/><g style="clip-path:url(#clip-path-5)"><path d="M356.34,487.79s15.93,57.78,40.34,83.48c5.63,5.93,37.35.69,42.88,4.3,71.61,46.81-62.73,42.87-81.14,23.44l-11.71-23.75-29.35-33,22.13-51.16Z" style="opacity:0.3;isolation:isolate"/></g><path d="M454.66,592.83,453.23,599l-15.33,4.81C415.6,557,397.68,576,361,566.82c-13.14-3.29-21.46-8.7-26.73-14.43a34,34,0,0,1-3-3.81l-5.64.67-8.26-6.94h0c7.59,10.12,6.28,13,6.28,13s-26,26.7-42.32,6.58-1.73-45.78-1.73-45.78c-1.05-11.79,10.15-26,10.15-26-3.37-8,1.64-9.71.25-15.25s3.47-16.19,3.23-20.58c-.13-2.63,1.1-10.84,2.11-17a13.66,13.66,0,0,1,8-10.32c13.61-5.92,43.37-18.93,48-21.46,6.07-3.29,16-19.59,16-19.59l9,32.79s23.15,48.66,27.2,65.65c5,21,14.77,73.19,9,86.43C417.85,576.36,454.66,592.83,454.66,592.83Z" style="fill:none;stroke:#263238;stroke-linecap:round;stroke-linejoin:round;stroke-width:2.0232537388801575px"/><polygon points="339.49 526.78 331.86 522.97 319.55 540.31 319.55 546.04 325.62 549.24 332.99 546.03 339.49 533.03 339.49 526.78" style="fill:#23262d"/><path d="M336.11,518.55s9.29,30.33-18.11,23.92l6.32,9.84s26.25-5.32,18.32-33.76Z" style="fill:#394257;stroke:#263238;stroke-linecap:round;stroke-linejoin:round;stroke-width:2.0232537388801575px"/><path d="M347.12,410.33l-2.95,4.34,6.59,3.21.7,5.63S397.27,495,405,527.22" style="fill:none;stroke:#23262d;stroke-linecap:round;stroke-miterlimit:10;stroke-width:2.0232537388801575px"/><rect x="334.38" y="423.51" width="38.33" height="71.45" rx="7.45" style="fill:#92e3a9;stroke:#263238;stroke-linecap:round;stroke-linejoin:round;stroke-width:0.809301495552063px"/><path d="M372.53,487.2c-7.86,2-18,7.53-18,7.53l17.57-2.08,1.4-3.93s8.61,3.12-2.84,10.41c0,0-20.63,8.61-21.94,11.33s-2.17,4.27-2.17,4.27-1,9.19-12.31,11.45l-11,16.65-5.83-.52c-6.75-10.25-5.31-40.49.37-45.26l-.7-15.53a15,15,0,0,1,2.66-9.21l4.27-6.17a15,15,0,0,1,7.81-5.75c3.89-1.22,13.51-3.16,19.6-2.37a10.3,10.3,0,0,1,3.33,1.15,4,4,0,0,1,.88,6.41l-1.32,1.3,13.12-1.28s3.53-.24,4.92,3.93-6.71,5.08-6.71,5.08-25.2,8.56-27.52,10.87,3.24,1.62,3.24,1.62l31.15-9.46s6.54-3,7.7,1.37S380.39,485.21,372.53,487.2Z" style="fill:#fff;stroke:#263238;stroke-linecap:round;stroke-linejoin:round;stroke-width:2.0232537388801575px"/><path d="M329.17,476.81s8.67-8.44,20.81-8.32" style="fill:none;stroke:#263238;stroke-linecap:round;stroke-linejoin:round;stroke-width:1.618602991104126px"/><path d="M306.76,433.92s15.3,10.19,17.56,19.77" style="fill:none;stroke:#23262d;stroke-linecap:round;stroke-miterlimit:10;stroke-width:2.0232537388801575px"/><path d="M295.53,461.29s14.59-2.59,22.47,0" style="fill:none;stroke:#23262d;stroke-linecap:round;stroke-miterlimit:10;stroke-width:2.0232537388801575px"/><path d="M293.22,489.18s13-7,19.64-6.94" style="fill:none;stroke:#23262d;stroke-linecap:round;stroke-miterlimit:10;stroke-width:2.0232537388801575px"/><path d="M294.14,476.81a26.79,26.79,0,0,1,20.29-4.16" style="fill:none;stroke:#23262d;stroke-linecap:round;stroke-miterlimit:10;stroke-width:2.0232537388801575px"/><path d="M316.45,498.66s-8.26,4.11-13.81,9.31c0,0-11.1,1.56-22.37,13.53" style="fill:none;stroke:#23262d;stroke-linecap:round;stroke-miterlimit:10;stroke-width:2.0232537388801575px"/></g><g id="lef-L"><path d="M540.4,690.81l7.17,40.58,37.69,17.28s6.47-7.33,3.7-21.84c0,0-.31-5,2.48-12.38s1.1-32.31,1.1-32.31l-22.83-9.94-22.92,4.28Z" style="fill:#23262d"/><g style="clip-path:url(#clip-path-6)"><path d="M575.09,660.75l-16,19.83s-2.52,25.61,5.16,38.44,24.08,31.3,24.08,31.3l7.88-4.24s11.45-23.24,11.8-26S575.09,660.75,575.09,660.75Z" style="opacity:0.2"/></g><path d="M540.4,690.81l7.17,40.58,37.69,17.28s6.47-7.33,3.7-21.84c0,0-.31-5,2.48-12.38s1.1-32.31,1.1-32.31l-22.83-9.94-22.92,4.28Z" style="fill:none;stroke:#394257;stroke-linecap:round;stroke-linejoin:round;stroke-width:2.0232537388801575px"/><path d="M543.87,723.85a1,1,0,0,1-1-.77c-1-4.14-25.22-101.58-22.19-130.63A82,82,0,0,1,518,564c1.84-20,12.52-33.71,30.9-39.51a29.2,29.2,0,0,1,8.76-1.43c36.83,0,42.51,80.08,42.73,83.49-.09,3.85-2.33,92.35-8.12,108.62a1,1,0,0,1-1,.67.87.87,0,0,1-.31,0,1,1,0,0,1-.65-1.25c0-.13,4-13.79-2.13-22-3.08-4.13-8.26-6.22-15.39-6.22h-.15c-3.68,0-9-1.82-13.35-4.49A98,98,0,0,0,544.87,723a1,1,0,0,1-.94.89Z" style="fill:#394257"/><path d="M557.64,524.1c36.31,0,41.72,82.55,41.72,82.55s-2.26,91.91-8.06,108.21c0,0,8.76-29.48-18.49-29.48h-.19c-3.62,0-9.31-2-13.59-4.86,0,0-12,16.3-15.16,42.32,0,0-25.33-101.54-22.14-130.49,0,0-16.47-53,27.46-66.87a28.11,28.11,0,0,1,8.45-1.38m0-2a30.12,30.12,0,0,0-9.06,1.47c-18.8,5.94-29.73,19.91-31.61,40.39a83,83,0,0,0,2.7,28.6c-2.91,29.48,21.2,126.65,22.24,130.79a2,2,0,0,0,2,1.53H544a2,2,0,0,0,1.88-1.78,97.72,97.72,0,0,1,13.75-39.81c4.31,2.48,9.42,4.13,13,4.13h.19c6.8,0,11.71,2,14.59,5.82,5.81,7.79,2,20.93,2,21.06a2,2,0,0,0,1.31,2.5,2,2,0,0,0,.63.1,2,2,0,0,0,1.9-1.34c5.85-16.42,8.09-105.08,8.19-108.84a1.15,1.15,0,0,0,0-.19,227.35,227.35,0,0,0-7.32-41.69c-3.48-12.21-7.84-22-12.95-29-6.61-9.11-14.5-13.73-23.47-13.73Z" style="fill:#23262d"/><path d="M549.19,539.36s13.16,96.3,9.84,121.39" style="fill:none;stroke:#23262d;stroke-miterlimit:10;stroke-width:2.0232537388801575px"/><g style="opacity:0.3;isolation:isolate"><path d="M591.31,714.81c.39-1.37,8.11-29.54-18.65-29.43-3.6,0-9.26-2-13.54-4.8a47.28,47.28,0,0,1,4.71-20.37c11.72-24.78,18.75-64.78,9.64-99.58-3.84-14.64-4.06-25.11-2.84-32.48,24.67,16.58,28.73,78.49,28.73,78.49S597.11,698.38,591.31,714.81Z"/></g><polygon points="541.83 772.44 539.98 786.31 582.23 793.88 585.3 783.81 541.83 772.44" style="fill:#23262d"/><path d="M548.49,783.54l-7.4,2.77s-4.18,11.79,18,12.72,26.38,6.43,23.36-4.4S548.49,783.54,548.49,783.54Z" style="fill:#394257;stroke:#23262d;stroke-linecap:round;stroke-linejoin:round;stroke-width:2.0232537388801575px"/><path d="M518.7,748.7v0" style="fill:none;stroke:#23262d;stroke-miterlimit:10;stroke-width:2.0232537388801575px"/><path d="M584.34,783.54s-8.1-23.36-35.15-39.54c-16.17-9.68-26.37-4-30.48,4.67.23-.74,6.08-19.27,24.39-15.83,2.43-2.28,6.75-6.26,11.18-10,6.7-5.66,15-11.22,25,4.74S595.83,774.38,584.34,783.54Z" style="fill:#23262d;stroke:#394257;stroke-linecap:round;stroke-linejoin:round;stroke-width:2.0232537388801575px"/><path d="M562.71,727.52s5.61,2.32,7,5.32" style="fill:none;stroke:#46494c;stroke-linecap:round;stroke-miterlimit:10;stroke-width:2.0232537388801575px"/><path d="M560.78,731.39s5.61,2.33,7,5.33" style="fill:none;stroke:#46494c;stroke-linecap:round;stroke-miterlimit:10;stroke-width:2.0232537388801575px"/><path d="M558.17,735.32s5.6,2.33,7,5.33" style="fill:none;stroke:#46494c;stroke-linecap:round;stroke-miterlimit:10;stroke-width:2.0232537388801575px"/><path d="M560.78,726.83s-3.38-.81-4.54,0" style="fill:none;stroke:#46494c;stroke-linecap:round;stroke-miterlimit:10;stroke-width:2.0232537388801575px"/><path d="M558.16,730.66s-3.38-.81-4.54,0" style="fill:none;stroke:#46494c;stroke-linecap:round;stroke-miterlimit:10;stroke-width:2.0232537388801575px"/><path d="M555.89,734a11,11,0,0,0-2.71-.36" style="fill:none;stroke:#46494c;stroke-linecap:round;stroke-miterlimit:10;stroke-width:2.0232537388801575px"/><path d="M550.48,735.21a33.67,33.67,0,0,0-7.38-2.37" style="fill:#23262d;stroke:#394257;stroke-linecap:round;stroke-linejoin:round;stroke-width:2.0232537388801575px"/><path d="M584.34,783.54c-35.45,2.69-57.39-11-63.73-15.62a8.58,8.58,0,0,1-3.17-4.39,21.08,21.08,0,0,1,1.26-14.83v0C522.82,740,533,734.32,549.19,744,576.24,760.18,584.34,783.54,584.34,783.54Z" style="fill:#394257;stroke:#23262d;stroke-linecap:round;stroke-linejoin:round;stroke-width:2.0232537388801575px"/></g><g id="face"><path d="M433.34,324.4l5.38,4.48a21.33,21.33,0,0,1,3.12,21c-4.68,12.2-12,7.41-12,7.41L424.79,341Z" style="fill:#fff;stroke:#263238;stroke-linecap:round;stroke-linejoin:round;stroke-width:1.618602991104126px"/><polygon points="425.71 352.12 429.91 356.87 430.11 395.68 420.39 404.55 410.16 408.94 388.49 406.63 369.29 391.37 367.38 383.1 368.6 373.96 408.6 364.32 425.71 352.12" style="fill:#fff;stroke:#263238;stroke-linecap:round;stroke-linejoin:round;stroke-width:1.618602991104126px"/><path d="M428,357.33l1.89-.46s.89,42.59-42.58,53.46l-17.81-9.72-2.15-17.51s29.81-7.68,31.13-8.38S428,357.33,428,357.33Z" style="fill:#263238"/><path d="M393,397.67h-4.27A17.22,17.22,0,0,1,376.91,393l-5.14-4.85A36.12,36.12,0,0,1,361,367.9l-3.7-21.85-.82-49.82,66.6-1.15,7.63,51-1.22,17.24a32.37,32.37,0,0,1-16.91,26.18l-11.34,6.13A17.23,17.23,0,0,1,393,397.67Z" style="fill:#fff;stroke:#263238;stroke-linecap:round;stroke-linejoin:round;stroke-width:1.618602991104126px"/><path d="M421.9,304.69a10.36,10.36,0,0,0-9.34-7.39c-13.39-.74-43.86-1.62-49.51,5.28-6.23,7.61-5.06,20.24-4.59,23.75a.82.82,0,0,1-.82.93h0a2.41,2.41,0,0,1-2.4-2.2,26.59,26.59,0,0,0-2.31-9.13c-1.82-3.64-1.36-8.19-1-10.24a8.06,8.06,0,0,0,0-2.3c-.66-5.42-1.94-27.4,19.5-35a5.11,5.11,0,0,0,3.12-3.36c.64-2,4.18-4,18.81.49a5,5,0,0,0,4.75-1.08c2.91-2.5,10.91-3.65,30.75,20.4a10.46,10.46,0,0,0,1.87,1.77c3.73,2.76,17.1,14.92,8,42.27,0,0-7.29,1.62-7.29,7.29v13.47a.27.27,0,0,1-.28.28h0a1.35,1.35,0,0,1-1.36-1.31c-.14-3.85-.9-15.25-5.18-22.06a12,12,0,0,1-1.72-8.13A31.45,31.45,0,0,0,421.9,304.69Z" style="fill:#23262d"/><path d="M376.92,372.52s14.43,4.38,25.25-2.13" style="fill:none;stroke:#263238;stroke-linecap:round;stroke-linejoin:round;stroke-width:1.620857426760186px"/><path d="M430,377.7c2.8,7.6-12.48,28.35-20,31.21-33.17-5.67-42.69-25.81-42.69-25.81-4.63,21.49,12.72,40.41,12.72,40.41,10.39-10.08,12.43-12.64,30-14.55l.08,0c5.48-.84,27.52-10.42,30.35,6.25C440.51,415.19,439.21,387.06,430,377.7Z" style="fill:#fff;stroke:#263238;stroke-linecap:round;stroke-linejoin:round;stroke-width:1.618602991104126px"/><path d="M393.56,271.25A29.9,29.9,0,0,1,403,291.71" style="fill:none;stroke:#46494c;stroke-linecap:round;stroke-miterlimit:10;stroke-width:1.2139522433280945px"/><path d="M368.37,277.49a26.17,26.17,0,0,1,19.43,14.92" style="fill:none;stroke:#46494c;stroke-linecap:round;stroke-miterlimit:10;stroke-width:1.2139522433280945px"/><path d="M359.7,284.25s10.05,3.13,14.39,9.89" style="fill:none;stroke:#46494c;stroke-linecap:round;stroke-miterlimit:10;stroke-width:1.2139522433280945px"/><path d="M404.7,268.13s16.16,7.63,16.16,23.58" style="fill:none;stroke:#46494c;stroke-linecap:round;stroke-miterlimit:10;stroke-width:1.2139522433280945px"/><ellipse cx="404.7" cy="341.11" rx="13.44" ry="11.01" style="fill:none;stroke:#263238;stroke-miterlimit:10;stroke-width:1.618602991104126px"/><ellipse cx="370.71" cy="341.11" rx="13.44" ry="11.01" style="fill:none;stroke:#263238;stroke-miterlimit:10;stroke-width:1.618602991104126px"/><path d="M379.88,354.24l-.49,1.24a3.35,3.35,0,0,0,.49,3.28l1.14,1.46" style="fill:none;stroke:#263238;stroke-linecap:round;stroke-linejoin:round;stroke-width:1.2327800570454264px"/><path d="M397.56,353.84l.44.84a4.46,4.46,0,0,1-.84,5.24l-.91.89" style="fill:none;stroke:#263238;stroke-linecap:round;stroke-linejoin:round;stroke-width:1.2327800570454264px"/><path d="M383.41,357.58s5,6.78,10.15-.71" style="fill:none;stroke:#263238;stroke-linecap:round;stroke-linejoin:round;stroke-width:1.2327800570454264px"/><line x1="382.96" y1="336.59" x2="392.65" y2="336.59" style="fill:none;stroke:#263238;stroke-miterlimit:10;stroke-width:0.9220231957179408px"/><polyline points="416.04 335.2 421.52 335.2 427.29 330.86" style="fill:none;stroke:#263238;stroke-miterlimit:10;stroke-width:2.0232537388801575px"/><polyline points="358.14 337.21 354.09 337.21 356.11 325.82" style="fill:none;stroke:#263238;stroke-miterlimit:10;stroke-width:2.0232537388801575px"/><path d="M364.63,333.69a15.74,15.74,0,0,1,14.7,2.29" style="fill:none;stroke:#263238;stroke-linecap:round;stroke-linejoin:round;stroke-width:2.8325552344322205px"/><path d="M411.81,334.9a15.76,15.76,0,0,0-14.87.48" style="fill:none;stroke:#263238;stroke-linecap:round;stroke-linejoin:round;stroke-width:2.8325552344322205px"/><path d="M375.09,341.3c-.27,1.83-1.36,3.18-2.42,3s-1.72-1.77-1.44-3.6,1.34-3.19,2.41-3S375.31,339.47,375.09,341.3Z" style="fill:#263238"/><path d="M406.91,341.3c-.27,1.83-1.35,3.18-2.42,3s-1.72-1.77-1.44-3.6,1.34-3.19,2.41-3S407.13,339.47,406.91,341.3Z" style="fill:#263238"/><path d="M428.25,291.71s8.1,3.3,8.56,16.8,1.62,15.89,1.62,15.89" style="fill:none;stroke:#46494c;stroke-linecap:round;stroke-miterlimit:10;stroke-width:1.2139522433280945px"/><path d="M421.66,298s7.06,8,7.52,15.68-.69,10.49,1.5,12.56" style="fill:none;stroke:#46494c;stroke-linecap:round;stroke-miterlimit:10;stroke-width:1.2139522433280945px"/></g><path d="M713.89,812.14a70.58,70.58,0,0,1,5.58,14.34,84.92,84.92,0,0,1,2.12,15.2.12.12,0,0,0,.24,0,51,51,0,0,0-1.69-15.33,57.5,57.5,0,0,0-5.73-14.67C714.18,811.28,713.71,811.78,713.89,812.14Z" style="fill:#394257"/><path d="M706.41,816.2a46.92,46.92,0,0,1,5.59,13,51.16,51.16,0,0,1,1.23,14.32c0,.15.17.17.19,0a36.67,36.67,0,0,0-.68-14.33A39.71,39.71,0,0,0,707,815.66C706.71,815.21,706.16,815.78,706.41,816.2Z" style="fill:#394257"/><path d="M798.53,769.57a105,105,0,0,1,6.16,9.94,82.13,82.13,0,0,1,4.77,11.06,84.53,84.53,0,0,1,4.62,23.32,92.27,92.27,0,0,1-.31,13.62c0,.17.18.19.21,0,2.54-15.46-.64-32.43-7.66-46.77A66.73,66.73,0,0,0,799.18,769C798.8,768.48,798.2,769.09,798.53,769.57Z" style="fill:#394257"/><path d="M803.77,770.43A81.88,81.88,0,0,1,818,812.87a91.79,91.79,0,0,1-.44,12.86c0,.2.22.21.25,0,2.64-14.63-.3-31-6.75-44.69a70.91,70.91,0,0,0-6.56-11.31C804.09,769.2,803.42,769.91,803.77,770.43Z" style="fill:#394257"/><path d="M813.11,827.9a3.14,3.14,0,0,0,3.6,2.4,3.32,3.32,0,0,0,2.22-3.68c-.06-.49-.66-.33-.62.11a2.61,2.61,0,0,1-2.07,3,3.13,3.13,0,0,1-2.93-1.93C813.24,827.61,813.08,827.78,813.11,827.9Z" style="fill:#394257"/><path d="M795.76,768.29c0,.29.31.39.4.13.53-1.47,1.53-2.66,3.1-2.69a3.83,3.83,0,0,1,3.42,2.56c.19.46.74.12.6-.31a4.31,4.31,0,0,0-4.06-3.05A3.76,3.76,0,0,0,795.76,768.29Z" style="fill:#394257"/><path d="M818.58,827.57c-.18.13,0,.53.19.41a26.74,26.74,0,0,1,19.08-3.28c.38.06.47-.61.08-.71A25.13,25.13,0,0,0,818.58,827.57Z" style="fill:#394257"/><path d="M800.81,767.55c-.23,0-.32-.42-.07-.45a26.68,26.68,0,0,0,17.69-7.85c.28-.26.74.25.47.55A25.15,25.15,0,0,1,800.81,767.55Z" style="fill:#394257"/><path d="M681.17,857.67a18.36,18.36,0,0,0-3.09,8.6.1.1,0,1,0,.2,0,21.88,21.88,0,0,1,3.18-8.38C681.58,857.69,681.33,857.44,681.17,857.67Z" style="fill:#394257"/><path d="M684.12,853.59c-.83.95-1.63,1.94-2.44,2.91a.09.09,0,1,0,.14.11c.82-1,1.66-1.9,2.47-2.88A.11.11,0,1,0,684.12,853.59Z" style="fill:#394257"/><path d="M670.57,847a17.63,17.63,0,0,0,6.16,4.49,21.31,21.31,0,0,0,7.59,2.09c.13,0,.17-.21,0-.22a24.37,24.37,0,0,1-7.32-2.19,21.93,21.93,0,0,1-3.39-2c-1-.73-1.85-1.64-2.82-2.39C670.66,846.58,670.46,846.81,670.57,847Z" style="fill:#394257"/><path d="M678.4,833.66c-4.48,2.09-7.53,7-8.26,11.7,0,.14.16.15.19,0a16.49,16.49,0,0,1,2.92-6.5,17.79,17.79,0,0,1,5.37-4.58C679,834.1,678.83,833.46,678.4,833.66Z" style="fill:#394257"/><path d="M663.21,826.78a18.62,18.62,0,0,0,6.4,4.7,21.08,21.08,0,0,0,3.92,1.41,10.62,10.62,0,0,0,3.75.49c.08,0,.12-.17,0-.2-1.2-.38-2.52-.46-3.74-.79A23.41,23.41,0,0,1,670,831a27.59,27.59,0,0,1-6.43-4.61C663.34,826.26,663.06,826.59,663.21,826.78Z" style="fill:#394257"/><path d="M658.14,810.89c0,.18,0,.37,0,.55a.31.31,0,1,0,.62.06c0-.09,0-.17,0-.25a1.18,1.18,0,0,1,.88.65.3.3,0,0,0-.12.4c-.26,0-.51.05-.76.09s-.16.26,0,.28c.37.05.75.09,1.12.11a14.41,14.41,0,0,0,10.25,5.54,14.85,14.85,0,0,0-7.15,6.95,1.32,1.32,0,0,0-1.1,0,1.29,1.29,0,0,0-.7,1.51,1.17,1.17,0,0,0,1.26.92,1.24,1.24,0,0,0,1.06-1.12c0-.22-.23-.22-.28,0a.75.75,0,0,1-1.44,0c-.18-.69.74-1,1.15-.48.27.32.74-.12.51-.43a1.33,1.33,0,0,0-.27-.26,15.89,15.89,0,0,1,8.56-7c.35-.13.19-.72-.2-.58a7.15,7.15,0,0,0-.77.29,17.72,17.72,0,0,1-5.82-1.78,15.14,15.14,0,0,1-4.67-3.93v-.07a14.07,14.07,0,0,0,2.42.32c.25,0,.33-.39.07-.44a15,15,0,0,0-2.51-.19,1.74,1.74,0,0,0-1.79-1.39A.36.36,0,0,0,658.14,810.89Z" style="fill:#394257"/><path d="M668.72,847.86a1.23,1.23,0,0,0,1.64.47,1.15,1.15,0,0,0,.6-1.44c-.07-.11-.23,0-.24.08a.86.86,0,0,1-.6.77.73.73,0,0,1-.91-.44.91.91,0,0,1,.25-1.07,1.61,1.61,0,0,1,1.35-.2c.34.07.51-.52.19-.65A1.79,1.79,0,0,0,668.72,847.86Z" style="fill:#394257"/><path d="M676.86,867.67a1.28,1.28,0,0,0,.85,1.36c1.16.34,1.54-1.66.51-1.62-.12,0-.18.17-.07.22.5.25.11,1.11-.43.63s.09-1.2.59-1.49c.32-.19.21-.75-.2-.6A1.92,1.92,0,0,0,676.86,867.67Z" style="fill:#394257"/><path d="M664.29,860.32a11.37,11.37,0,0,0,6.81,3.59c2.35.41,5.5.32,7.52-1.14.08,0,0-.22-.07-.19-1.14.22-2.19.63-3.36.76a13.3,13.3,0,0,1-3.83-.15,13,13,0,0,1-3.49-1.17,18.77,18.77,0,0,1-3.1-2.21C664.47,859.58,664.07,860,664.29,860.32Z" style="fill:#394257"/><path d="M655.89,847A44.54,44.54,0,0,0,662,857.62c.08.11.23,0,.16-.14a45.33,45.33,0,0,1-5.94-11.05A1.8,1.8,0,0,1,655.89,847Z" style="fill:#394257"/><path d="M653.15,822.56a44.93,44.93,0,0,0,1,19.38c.21,0,.43,0,.64,0a46.29,46.29,0,0,1-.89-19.32C654,822.06,653.24,822,653.15,822.56Z" style="fill:#394257"/><path d="M653.87,820.84a.39.39,0,0,0,.66.4,12.7,12.7,0,0,1,3.76-3.43,14.16,14.16,0,0,1,4.75-1.45.13.13,0,0,0,0-.26C659.56,815.49,655.49,817.78,653.87,820.84Z" style="fill:#394257"/><path d="M651.56,842.56a3.38,3.38,0,0,0,0,4.29,3.26,3.26,0,0,0,4.21.91,3.49,3.49,0,0,0,1.6-4c-.07-.18-.32-.07-.29.09.43,2.84-3.06,4.85-4.93,2.37-1.72-2.28.82-4.73,3.23-3.93.47.16.79-.59.33-.8A3.61,3.61,0,0,0,651.56,842.56Z" style="fill:#394257"/><path d="M711.16,846.55a124.94,124.94,0,0,0-16.84,9.3q-3.89,2.52-7.6,5.28a61.94,61.94,0,0,0-7.49,6.22c-.11.12,0,.33.15.22,2.55-1.76,4.93-3.8,7.43-5.63s5.33-3.77,8.09-5.52a165.55,165.55,0,0,1,16.55-9C711.93,847.16,711.72,846.3,711.16,846.55Z" style="fill:#394257"/><path d="M661.32,811.72a121.8,121.8,0,0,0,21.31,1.87c3.49,0,7-.08,10.45-.32a76,76,0,0,0,10.64-1.2c.55-.12.54-1-.07-1-3.56.32-7.09.93-10.65,1.21s-7.07.44-10.6.45a167.89,167.89,0,0,1-21-1.41A.18.18,0,0,0,661.32,811.72Z" style="fill:#394257"/><path d="M711.77,846.24a3.06,3.06,0,0,0,2.92,2.81,3,3,0,0,0,2.69-3.12c0-.86-1.07-1-1.1-.14-.1,2.56-3.23,2.62-4,.29C712.13,845.75,711.72,845.93,711.77,846.24Z" style="fill:#394257"/><path d="M703,808.1a2.66,2.66,0,0,0-1,3.65c.06.09.19,0,.18-.09-.18-1.16,0-2.45,1.15-3a2.06,2.06,0,0,1,2.18.45c.86,1.3,1.92,2.48,2.81,3.77S710,815.6,710.8,817a49.22,49.22,0,0,1,3.79,8.87,57.34,57.34,0,0,1,2.34,19.25.11.11,0,1,0,.21,0,43.25,43.25,0,0,0-1.77-19.47,50.85,50.85,0,0,0-3.77-8.94,47.69,47.69,0,0,0-2.67-4.37,21.86,21.86,0,0,0-3-3.81l-.06,0A2.56,2.56,0,0,0,703,808.1Z" style="fill:#394257"/><path d="M721.7,843.09a2.39,2.39,0,0,1-1.23,2.09,3.15,3.15,0,0,1-2.41,0c-.11,0-.25.11-.16.21a2.48,2.48,0,0,0,2.9.43,2.92,2.92,0,0,0,1.59-2.73C722.37,842.61,721.74,842.68,721.7,843.09Z" style="fill:#394257"/><path d="M707.58,809.77a.14.14,0,0,0,.28.07,2.53,2.53,0,0,1,4.45-.76c.28.31.68-.25.5-.54C711.47,806.34,707.71,807.09,707.58,809.77Z" style="fill:#394257"/><path d="M821.21,756.14a78.74,78.74,0,0,1,19,68c-.06.3.35.3.41,0,4.29-18.84.59-39.19-9.17-55.77a71.46,71.46,0,0,0-9.68-12.94C821.46,755.16,820.91,755.82,821.21,756.14Z" style="fill:#394257"/><path d="M817.73,757.61c.26.41.77-.12.57-.48a3.33,3.33,0,0,1,1-4,4.68,4.68,0,0,1,4.27-1.09c3.24.69,5.8,3.54,8,5.84a67.19,67.19,0,0,1,11.69,17,69.94,69.94,0,0,1,6.38,39.92c-.5,3.54-1,7.86-3.31,10.72a5.27,5.27,0,0,1-4.55,2.08,3.88,3.88,0,0,1-3.79-2.85.13.13,0,1,0-.26,0c.35,2.71,3.33,3.82,5.76,3.3,3.19-.7,4.8-4.1,5.61-7a62.07,62.07,0,0,0,1.58-23.19,70.48,70.48,0,0,0-19.28-41.51c-2.46-2.53-5.85-6-9.76-5.38C818.78,751.48,816,754.86,817.73,757.61Z" style="fill:#394257"/><path d="M862.06,821.68a140.63,140.63,0,0,1-15,2c-.22,0-.26.44,0,.43a87,87,0,0,0,15.1-1.68c2.48-.48,5-1,7.39-1.69a42.39,42.39,0,0,0,7.33-2.29c.34-.16.3-.85-.15-.75-1.26.28-2.47.8-3.7,1.19s-2.36.72-3.54,1C867,820.59,864.54,821.18,862.06,821.68Z" style="fill:#394257"/><path d="M839.56,747.32A140.53,140.53,0,0,0,826,754c-.19.1-.45-.22-.25-.35a86.62,86.62,0,0,1,13.5-7c2.33-1,4.69-1.88,7.08-2.7a43.74,43.74,0,0,1,7.37-2.16c.38-.05.73.55.29.71-1.2.46-2.5.7-3.73,1.06s-2.36.72-3.53,1.1C844.28,745.49,841.9,746.36,839.56,747.32Z" style="fill:#394257"/><path d="M858.78,743c2,1.7,4.14,3.26,6.08,5a69.1,69.1,0,0,1,5.63,5.85,66.43,66.43,0,0,1,15.8,45.46,49.35,49.35,0,0,1-1,9.07c-.58,2.62-1.69,5.32-4.2,6.61-.28.14-.16.63.16.48,4.42-2,5.06-7.8,5.51-12.06a66.9,66.9,0,0,0-14-48.38,69.2,69.2,0,0,0-6.06-6.74,44.8,44.8,0,0,0-7.41-6.13A.49.49,0,0,0,858.78,743Z" style="fill:#394257"/><path d="M850.14,733.64c-4,2.33-6.73,6.84-6,11.51.1.63,1,.41.88-.17-.6-4.2,1.86-8.29,5.43-10.4,4-2.38,9.16-2.05,13.4-.38,4.4,1.74,8,4.94,11.17,8.39a97.63,97.63,0,0,1,9.34,12.09,79,79,0,0,1,12,28.54,62.75,62.75,0,0,1,1.09,15,45,45,0,0,1-2.77,14.24c-2,4.95-5.54,9.49-10.66,11.4-4.66,1.74-10.34.72-13.58-3.22-.16-.19-.43.07-.3.25a12.07,12.07,0,0,0,11,4.38c4.69-.52,8.8-3.61,11.49-7.36,3-4.16,4.39-9.23,5.14-14.23a60.15,60.15,0,0,0,.19-16.14,76.56,76.56,0,0,0-11.14-30.8,101.09,101.09,0,0,0-10-13.58c-3.26-3.76-7-7.34-11.54-9.44S854.74,730.94,850.14,733.64Z" style="fill:#394257"/><path d="M712.84,843.28a8.88,8.88,0,0,1-1.52,3.37c-.07.09,0,.24.13.15a6.39,6.39,0,0,0,1.9-3.47C713.41,843,712.93,843,712.84,843.28Z" style="fill:#394257"/><path d="M701.62,812.44c.76.47,1.56.82,2.28,1.34a13.54,13.54,0,0,1,1.94,1.77c.11.12.27-.1.2-.21A8.3,8.3,0,0,0,701.9,812C701.65,811.87,701.36,812.28,701.62,812.44Z" style="fill:#394257"/><path d="M721.23,824.41a64.23,64.23,0,0,1,1.6,8.34c.31,2.73.3,5.43.42,8.16,0,.12.17.1.19,0a37.15,37.15,0,0,0-.08-8.43,49.55,49.55,0,0,0-1.52-8.36C721.7,823.64,721.12,824,721.23,824.41Z" style="fill:#394257"/><path d="M713.65,809.33a38,38,0,0,1,4.27,6.28c1.26,2.36,2,4.85,3,7.3,0,.11.2.05.19-.07a23.41,23.41,0,0,0-2.6-7.31,33.61,33.61,0,0,0-4.46-6.69C713.85,808.56,713.43,809.06,713.65,809.33Z" style="fill:#394257"/><path d="M711.4,808.5a12.9,12.9,0,0,1,1.69,1.43,8.42,8.42,0,0,1,1.08,1.7c.07.15.24,0,.21-.14a5.19,5.19,0,0,0-2.71-3.46C711.41,807.93,711.2,808.32,711.4,808.5Z" style="fill:#394257"/><path d="M659,812.69a12.73,12.73,0,0,0,5.29,4.45,13.8,13.8,0,0,0,4.62,1.38,15.71,15.71,0,0,0-2.72,2.17,13.68,13.68,0,0,0-3.1,4.35,1.65,1.65,0,0,0-1.83.52,1.7,1.7,0,0,0-.18,1.9,1.41,1.41,0,0,0,1.64.62,1.37,1.37,0,0,0,.71-.58,17.05,17.05,0,0,0,6.68,5,15.66,15.66,0,0,0,6.15,1.35,16.3,16.3,0,0,0-4,4.28,13.21,13.21,0,0,0-2.37,6.66,2.08,2.08,0,0,0-1.75,2.85,1.59,1.59,0,0,0,1.66.91,1.43,1.43,0,0,0,.87-.52c3.75,2.77,8.38,5.17,13.05,5.66a23.37,23.37,0,0,0-4,5.74,16.37,16.37,0,0,0-2,6.94c0,.22.3.22.37,0a53.84,53.84,0,0,1,2.31-6.53,25.36,25.36,0,0,1,4.15-5.8.47.47,0,0,0-.42-.77.18.18,0,0,0-.07-.05,63.48,63.48,0,0,1-6.84-2.36,32.56,32.56,0,0,1-6.43-3.82c-.32-.24-.69.14-.64.46a.88.88,0,0,1-1.33-.47,1,1,0,0,1,.26-1,1.61,1.61,0,0,1,1.16-.35.44.44,0,0,0,.2-.84c.24-.92.42-1.86.75-2.76a15.65,15.65,0,0,1,7.27-8.52l.08-.07h0a.23.23,0,0,0,.14-.23c.11-.34-.1-.77-.53-.57l-.68.35a25.52,25.52,0,0,1-3-.28,19.45,19.45,0,0,1-3.86-1.15,17.14,17.14,0,0,1-6.61-5,.39.39,0,0,0-.47-.13.27.27,0,0,0-.49.12.65.65,0,0,1-1.22.16.61.61,0,0,1,.11-.67c.26-.27.63-.2,1-.17a.45.45,0,0,0,.47-.36,19.5,19.5,0,0,1,3.28-4.23,17.17,17.17,0,0,1,2.09-1.62c.8-.51,1.68-.85,2.48-1.33.34-.21.37-1-.18-.86a6.65,6.65,0,0,0-1,.33,23,23,0,0,1-2.42-.47,15.41,15.41,0,0,1-3-1.19,18.14,18.14,0,0,1-5-4.25C659.29,811.59,658.78,812.31,659,812.69Z" style="fill:#394257"/><path d="M705.77,827.56a28.35,28.35,0,0,1,.8,20.24c-.05.14.13.23.19.09a27.27,27.27,0,0,0-.65-20.5C706,827.14,705.67,827.34,705.77,827.56Z" style="fill:#394257"/><path d="M692.62,812.33a18.46,18.46,0,0,1,7.88,4.89,20.09,20.09,0,0,1,4.55,8.55c0,.15.24.06.22-.07-.84-6.44-6.44-12.54-12.53-13.83C692.52,811.82,692.39,812.25,692.62,812.33Z" style="fill:#394257"/><path d="M723.37,841.16c-.25.1-.14.52.14.41A219.38,219.38,0,0,1,793,827.36q4.86-.17,9.72-.1c3.36,0,6.73.31,10.1.32.52,0,.72-.87.14-.94a89.13,89.13,0,0,0-9-.4c-3,0-6,0-9,.06q-8.85.24-17.66,1.22a206.48,206.48,0,0,0-35.17,7A183.47,183.47,0,0,0,723.37,841.16Z" style="fill:#394257"/><path d="M713.73,809.32c-.26,0-.4-.35-.11-.42a219.18,219.18,0,0,0,65.67-26.68q4.14-2.57,8.15-5.31c2.78-1.9,5.43-4,8.23-5.86.43-.29,1.09.32.64.7a85.42,85.42,0,0,1-7.24,5.29q-3.69,2.55-7.5,4.94-7.49,4.69-15.37,8.77A207.49,207.49,0,0,1,733,804.4,185.57,185.57,0,0,1,713.73,809.32Z" style="fill:#394257"/><path d="M669.55,856.08c.06.95.14,1.89.21,2.84a8.38,8.38,0,0,1,.1,1.32q.21.94-1,1.29a3.23,3.23,0,0,1-.49-.25c-.11-.06-.22.14-.12.21.63.46,1.66.8,1.94-.22a6.93,6.93,0,0,0-.11-2.22c-.08-1-.16-2-.25-3C669.79,855.85,669.54,855.92,669.55,856.08Z" style="fill:#394257"/><path d="M654.6,821.43c-.27.2-.07.76.27.56,2.1-1.23,3.52,1.87,4.29,3.32a31.87,31.87,0,0,1,2.36,5.81c0,.13.22,0,.19-.09a34.27,34.27,0,0,0-3.09-7.49C657.87,822.18,656.33,820.07,654.6,821.43Z" style="fill:#394257"/><path d="M680.14,852.62a4.56,4.56,0,0,1,1.34,1.13,3.78,3.78,0,0,1,.28.46.42.42,0,0,0,0,.16.73.73,0,0,0,.25.47c.05.17.1.33.14.5-.56,1.09-1.13,2.17-1.68,3.26-.77,1.5-1.84,5-3.94,4.75-.11,0-.14.17,0,.19,2,.48,2.91-1.44,3.71-2.91q1.68-3.15,3.35-6.3a.29.29,0,0,0,.23-.43c.05-.09.1-.17.14-.26.27-.51-.47-.81-.73-.31l0,.08-.73-.11c-.17,0-.3.14-.32.3h0a3,3,0,0,0-1.66-1.5C680.16,852,679.87,852.44,680.14,852.62Z" style="fill:#394257"/><path d="M674.18,833.24a3.08,3.08,0,0,1-.41,3.63c-.09.09,0,.27.11.17a3.27,3.27,0,0,0,1.17-2.35.43.43,0,0,0,.48-.15.22.22,0,0,0,.05-.12h0a1.15,1.15,0,0,0,.73.19c.19,0,.23-.26.16-.4a1,1,0,0,0-1.17-.52l0,0c-.06-.1-.19,0-.21.07l-.15,0a2.34,2.34,0,0,0-.41-.76C674.38,832.82,674.08,833,674.18,833.24Z" style="fill:#394257"/><path d="M672.34,864.33c.2.12.41.21.62.31a.31.31,0,0,0,.18.21l0,.06c-.14.28-.25.59-.36.88a4,4,0,0,0-.26.83.59.59,0,0,0-.46-.27.82.82,0,0,0-.67,1.3.74.74,0,0,0,1.21-.31.73.73,0,0,0,0-.46l.07,0a18.41,18.41,0,0,1,5.25-2.33h.1l.35-.09a.46.46,0,0,0,.31-.51c.43-.12.41-.89-.08-.78s-1.23.25-1.85.35a.23.23,0,0,0-.35-.2l-.79.38-1.78.28h0l-.65-.14a.24.24,0,0,0-.17,0l-.36-.12A.36.36,0,0,0,672.34,864.33Zm.76,1.68,0,0,0-.09.32-.18Z" style="fill:#394257"/><path d="M654.65,815.52l.42.77a.41.41,0,0,0,0,.09c.16.29.33.57.5.85a.29.29,0,0,0,0,.27,2.1,2.1,0,0,0,.28.25c.13.2.27.39.41.58s.23,0,.18-.12a1.54,1.54,0,0,0-.08-.19.56.56,0,0,0,.17-.09,1.32,1.32,0,0,0,.87-.49.3.3,0,0,0,.06-.11l.2,0c.3,0,.5-.36.38-.6a19.76,19.76,0,0,0,4.4-.41c.41-.09.4-.77-.06-.73a23.68,23.68,0,0,1-7.6-.48C654.66,815.08,654.57,815.38,654.65,815.52Z" style="fill:#394257"/><path d="M653.75,814.55a.55.55,0,0,0-.33.24.8.8,0,0,0-.18.27.64.64,0,0,0,0,.53v0a.49.49,0,0,0,.5.4.65.65,0,0,0,.34-.06.76.76,0,0,0,.46-1.08.06.06,0,0,0-.07,0A.72.72,0,0,0,653.75,814.55Z" style="fill:#394257"/><path d="M722.24,841.25a4,4,0,0,1-1.3,3.18,3.1,3.1,0,0,1-2.13.78,7,7,0,0,1-1.64-.55.18.18,0,0,0-.16,0,.61.61,0,0,0-.46.61c.15,1.39-.47,2.83-2,3a2.36,2.36,0,0,1-1.92-.75.64.64,0,0,0-.69-.72l-.23-.25c-.09-.1-.26,0-.27.13a1.41,1.41,0,0,0,0,.29,81.94,81.94,0,0,0-8.84,4.3q-4.32,2.31-8.47,4.92c-2.7,1.69-5.35,3.47-7.92,5.35-1.32,1-2.63,1.94-3.9,3-.69.55-1.37,1.1-2,1.67a5.78,5.78,0,0,0-1.23,1.24l0,0c-.3-.37-.76,0-.65.43s.13.74-.33.8a.67.67,0,0,1-.68-.51c-.23-.64.32-1,.67-1.4a.23.23,0,0,0-.13-.38c-.58,0-1,.56-1.13,1.06a1.52,1.52,0,0,0,.41,1.55,1.21,1.21,0,0,0,1.52.1,1.31,1.31,0,0,0,.51-1.22,5,5,0,0,0,1.52-.95l1.8-1.36c1.31-1,2.62-1.94,4-2.88q4.08-2.88,8.36-5.48c2.78-1.69,5.63-3.27,8.52-4.77s5.82-2.68,8.68-4.11a3.47,3.47,0,0,0,3.08.94,3.52,3.52,0,0,0,2.55-3.22,3.77,3.77,0,0,0,3.62-.25,5,5,0,0,0,2.2-3.24.6.6,0,0,0,.22,0A252.44,252.44,0,0,1,793,828.53c6.45-.38,12.91-.34,19.37-.56a3.73,3.73,0,0,0,3.73,3,4.37,4.37,0,0,0,4-3.36,26.41,26.41,0,0,1,2.74-1.43,21.16,21.16,0,0,1,4.69-1.35,20.44,20.44,0,0,1,9.67.64,5.57,5.57,0,0,0,5.45,3.42,6.28,6.28,0,0,0,5.26-3.49,29,29,0,0,0,4.73-.78c1.88-.37,3.77-.73,5.65-1.12,3.48-.72,7-1.3,10.47-2.16,0,0,0,0,0,0a6.25,6.25,0,0,0,2.48,2.24,15.54,15.54,0,0,0,3.14,1.55,15.82,15.82,0,0,0,7.05.87,14.43,14.43,0,0,0,11.44-8.08.19.19,0,0,0-.32-.2c-2.81,3.63-6.58,6.25-11.24,6.72a14.17,14.17,0,0,1-6.29-.83,14.82,14.82,0,0,1-2.8-1.37c-.74-.48-1.44-1.29-2.23-1.72.15-.5,0-1.08-.72-1-3.73.61-7.42,1.61-11.11,2.43-1.82.4-3.63.83-5.44,1.25a41.27,41.27,0,0,0-4.45,1.1.19.19,0,0,0,0-.07c.19-.9-1-1.12-1.35-.34a4.93,4.93,0,0,1-4.42,3.35,5.56,5.56,0,0,1-4.16-2.16c.22-.39.19-.91-.29-1.06a21.36,21.36,0,0,0-10.67-.69,20.8,20.8,0,0,0-5,1.62,18.44,18.44,0,0,0-2.51,1.4.73.73,0,0,0-1,.51c0,.12-.07.24-.1.35a7.36,7.36,0,0,0-.72.76.3.3,0,0,0,.11.46,2.57,2.57,0,0,1-2.35,1.13,3.53,3.53,0,0,1-2.56-1.66h0c.39,0,.55-.66.11-.7l-.56-.05c0-.12-.09-.24-.13-.36-.08-.29-.49-.16-.52.1,0,.07,0,.13,0,.2a141.3,141.3,0,0,0-17,0q-8.82.38-17.58,1.39a249.48,249.48,0,0,0-35.45,6.71c-6.32,1.67-12.57,3.61-18.74,5.77C723.41,840.06,722.22,840.42,722.24,841.25Z" style="fill:#394257"/><path d="M847,735.1a11.11,11.11,0,0,0-4.16,8.44c-2.68,1.38-5.36,2.79-8,4.23-1.46.79-2.93,1.57-4.39,2.38-1,.55-2.06,1.07-3,1.7a6.56,6.56,0,0,0-8-1,6.37,6.37,0,0,0-2.67,4.06,5.72,5.72,0,0,0,.25,3.24c-1,.78-2,1.73-3,2.51a27.29,27.29,0,0,1-3.85,2.5A25.7,25.7,0,0,1,806,765c-1.38.44-2.81.59-4.19,1-1.16-1-3.51-.74-4.6,0-1.62,1.15-2.55,4.14-1.06,5.74.57.61,1.19-.41,1.08-.92a4.82,4.82,0,0,1-.26-2,2.68,2.68,0,0,1,1.34-1.8,3.27,3.27,0,0,1,2-.29,2.89,2.89,0,0,1,.83.27.48.48,0,0,0,.51.43,15.13,15.13,0,0,0,4.82-1,25.14,25.14,0,0,0,4.39-1.91c2.36-1.32,5.12-3.15,6.63-5.53a3,3,0,0,0,.45.49c.22.19.44-.12.39-.33a7.78,7.78,0,0,1-.2-3.89,4.77,4.77,0,0,1,2.16-3,4.95,4.95,0,0,1,5.93.95.23.23,0,0,0,.14.13c.2.2.4.42.6.65a.81.81,0,0,0,1.33-.87l-.15-.3c1-.41,1.9-.93,2.8-1.37,1.49-.72,3-1.47,4.45-2.21,2.58-1.29,5.16-2.6,7.71-3.94,0,.07,0,.14.05.22.23.93,1.58.33,1.46-.49,0-.18,0-.35-.06-.51a1,1,0,0,0,0-1.49,9.43,9.43,0,0,1,3.67-6.73c3-2.35,7.14-2.67,10.76-1.9a25.66,25.66,0,0,1,10.33,5.34,82.14,82.14,0,0,1,8.78,8.11c10.88,11.43,18.75,26.09,19.89,42a58.48,58.48,0,0,1-3.74,24.81c-.14.36.31.54.48.2,7.58-14.34,5.8-32.38-.73-46.74a87,87,0,0,0-24-30.18,26.53,26.53,0,0,0-10.71-5.35C855,731.72,850.35,732.32,847,735.1Z" style="fill:#394257"/><path d="M697,811.5c-1.7.21-3.4.4-5.1.56-3.53.32-7.07.51-10.61.55a134.19,134.19,0,0,1-20.61-1.69.84.84,0,0,0-.26,1.65,107.17,107.17,0,0,0,31.23.88c1.7-.21,3.39-.46,5.08-.78.84-.15,1.68-.32,2.52-.5a3.27,3.27,0,0,0,1.79-.63,2.85,2.85,0,0,0,.19.63.71.71,0,0,0,1.34-.45c-.19-1.16.05-2.44,1.41-2.7a2.44,2.44,0,0,1,1.65.29,3.37,3.37,0,0,1,.46.32s0,0,0,0a.62.62,0,0,0,1.13.47c.72-1.11,1.3-2.14,2.8-2.2a3.48,3.48,0,0,1,2.58,1.14c0,.21.07.42.34.39H713a.28.28,0,0,0,.4,0,105.18,105.18,0,0,0,16.91-3.7c5.66-1.58,11.25-3.45,16.73-5.56a189.56,189.56,0,0,0,31.88-15.89,170.14,170.14,0,0,0,16.32-11.39c.79-.64,0-2-.88-1.32a207.08,207.08,0,0,1-29.86,19A192.55,192.55,0,0,1,732,803.78c-3.09.94-6.19,1.81-9.32,2.59s-6.19,1.43-9.25,2.26c-1.14-2.67-5.42-2.48-6.87-.2a3.66,3.66,0,0,0-3.24-.66,3.6,3.6,0,0,0-2.29,3.39,2.38,2.38,0,0,0-1.47,0Z" style="fill:#394257"/><path d="M845.05,820.66a8,8,0,0,1-2,6.5c-.14.16.07.42.23.27a7.61,7.61,0,0,0,2.31-6.87C845.48,820.22,845,820.34,845.05,820.66Z" style="fill:#394257"/><path d="M821.8,753.32a83.28,83.28,0,0,1,7.93,8.12,70.23,70.23,0,0,1,15.65,42.69c0,.31.43.19.44-.09a69.12,69.12,0,0,0-14.58-42.35,59,59,0,0,0-8.7-9.38C822,751.83,821.29,752.84,821.8,753.32Z" style="fill:#394257"/><path d="M817.2,757.51a1.54,1.54,0,0,0,.34,2c.69.5,1.44-.61.84-1.13s1-.53,1-.52a6.48,6.48,0,0,1,1,.22c.53.15,1.06.33,1.57.53a19.33,19.33,0,0,1,3.11,1.66c.24.15.46-.18.28-.38a11,11,0,0,0-5.89-3.33A2.06,2.06,0,0,0,817.2,757.51Z" style="fill:#394257"/><path d="M881,814.72c-2.44,1.15-4.81,2.39-7.35,3.34s-5.13,1.58-7.68,2.44c-.15,0-.16.36,0,.36a27.71,27.71,0,0,0,7.88-1.66,35.27,35.27,0,0,0,7.52-3.3C882,815.52,881.81,814.34,881,814.72Z" style="fill:#394257"/><path d="M870.23,821.29c4.51,3.27,10.92,1.69,13.85-2.88.18-.29-.18-.64-.39-.33-3.1,4.4-8.64,5.36-13.28,2.91C870.25,820.91,870.09,821.19,870.23,821.29Z" style="fill:#394257"/><path d="M845.51,739.57a.59.59,0,1,0,.9.75c2.15-2.54,5.67-3.39,8.87-3a19.72,19.72,0,0,1,9,4.21A64.16,64.16,0,0,1,877.33,755a71.76,71.76,0,0,1,13.25,34.4,67.45,67.45,0,0,1-.79,21c0,.21.24.22.29,0A69.85,69.85,0,0,0,865,740.66c-3-2.23-6.34-4.26-10.09-4.62A10.58,10.58,0,0,0,845.51,739.57Z" style="fill:#394257"/><path d="M650.74,845.31c.55,1.69,3.3,4,5.06,2.93,1.81,4.2,4,8.38,7.29,11.59,2.75,2.65,6.86,5.41,10.88,4.9.21,0,.32-.43.08-.5a33.22,33.22,0,0,1-5.36-1.65,18,18,0,0,1-5-3.54c-3.25-3.24-5.35-7.42-7.14-11.59.07-.15,0-.37-.17-.34-.27-.3-.76-.06-.83.3a3.17,3.17,0,0,1-3.52-1.5c-1.12-1.68-.46-4.71,2.09-3.95.56.17,1-.74.4-1C651.86,840,650,843,650.74,845.31Z" style="fill:#394257"/><path d="M673.78,865.23a6,6,0,0,0-1,.75c-.15.15-.07.45.18.35a5.55,5.55,0,0,0,1.06-.6C674.35,865.52,674.15,865,673.78,865.23Z" style="fill:#394257"/><path d="M702.39,850.9c-2.9,1.57-5.74,3.23-8.51,5s-5.2,3.48-7.69,5.39a48.18,48.18,0,0,0-6.52,5.5.48.48,0,0,0-.74.29,3.41,3.41,0,0,1-.42,1.07.62.62,0,0,1-1,.07c-.36-.51.08-1,.4-1.46a.53.53,0,0,0,.39-.56,9.39,9.39,0,0,0-.36-1.48,1.11,1.11,0,0,0-.62-.8,1,1,0,0,0-1.34.78.18.18,0,0,0,.35.09.39.39,0,0,1,.62-.22c.17.14.17.4.21.59s.09.65.16,1a2.56,2.56,0,0,0-.9,1.21,1.87,1.87,0,0,0,.4,1.89c1.24,1.22,2.88-.36,3.08-1.7,2.24-1.42,4.28-3.28,6.42-4.84,2.7-2,5.45-3.85,8.28-5.62q3.89-2.45,8-4.6c2.8-1.48,5.84-2.61,8.57-4.19.6-.35.6-1.76-.3-1.47A51.85,51.85,0,0,0,702.39,850.9Z" style="fill:#394257"/><path d="M717,842.39a9.83,9.83,0,0,1-.62,3.44.25.25,0,0,0-.08.18,4.51,4.51,0,0,1-.31.57c-.9,1.35-2.68,1.89-3.89.61-.27-.29-.66.23-.48.51a2.79,2.79,0,0,0,4.2.32,4,4,0,0,0,1.07-1.51c2.8,1.56,6.61-1.27,6.44-4.4,0-.82-1-.57-1.2.06-.69,2.8-2.37,3.75-5,3.65a13.74,13.74,0,0,0,.24-3.45C717.39,842.15,717.05,842.18,717,842.39Z" style="fill:#394257"/><path d="M812,827.31a3.2,3.2,0,0,0,3.45,3.79,4.48,4.48,0,0,0,3.13-1.66.22.22,0,0,0,.3,0c2.76-2.35,5.81-4.2,9.48-4.62a16,16,0,0,1,9.51,2c2.94,3.81,9.42,2.5,11.36-1.77a.23.23,0,0,0,.23.31,55,55,0,0,0,9.84-1.83,74.86,74.86,0,0,0,9.07-2.67c.6-.23.45-1.45-.25-1.22-3.08,1-6.1,2.18-9.23,3s-6.35,1.34-9.47,2.18a.27.27,0,0,0-.19.2,6.94,6.94,0,0,0,.3-.8c.24-.81-.76-1.28-1.12-.46a6.31,6.31,0,0,1-5,4.16,6.39,6.39,0,0,1-4.58-1.26.77.77,0,0,0-.21-1.06c-6-3.49-14.38-2.8-19.21,2.34a4.28,4.28,0,0,0,.23-.92.21.21,0,0,0-.38-.17c-.78,1.13-1.42,2.35-2.76,2.89-1.74.7-3.76-.33-3.55-2.35C813,826.68,812.11,826.67,812,827.31Z" style="fill:#394257"/><path d="M261.73,775.33a42.46,42.46,0,0,0-29.06-17.6.79.79,0,0,0-.33-.17,36.11,36.11,0,0,0-8.66-.85,53.86,53.86,0,0,1,33.83,7.08A.44.44,0,0,0,258,763c-12.82-8.53-29.57-9.9-44-4.9a42,42,0,0,0-16.56,9c-9.6,8.55-14.08,20.64-13.18,33.35,0,.35.68.46.67.07a42.69,42.69,0,0,1,12.74-31.26,36.27,36.27,0,0,1,3.72-3.11,43.24,43.24,0,0,0-16,32.5c0,.43.73.64.74.16.36-16.16,10.64-31.59,25.78-37.59,14.64-5.81,32.45-2,43.59,9.08,23.52,23.39,12.71,74.33-21.06,81.92-20.23,4.54-38.92-8.4-44.41-27.79-.3-1.05-2.14-1.24-1.9.06,3.21,17.11,18.76,29.9,35.93,30.86,19.11,1.05,34.42-11.62,41.42-28.69C272.14,810.38,271.89,790.22,261.73,775.33Z" style="fill:#394257"/><path d="M277.39,789.55a49.13,49.13,0,0,0-15.27-22.72.29.29,0,1,0-.37.45c15.06,13.8,21.11,36.84,13.47,56s-27,31.11-47.37,31.29c-1.07,0-.67,1.51.25,1.54,16.3.65,32.45-8,42.2-20.89C280.17,822.18,282.35,805,277.39,789.55Z" style="fill:#394257"/><path d="M284.65,769.57c-11.73-2.11-23-4.93-33.64-10.5-.44-.23-.65.39-.26.61,10.33,5.88,22,10.4,33.94,11.18C285.5,770.92,285.33,769.69,284.65,769.57Z" style="fill:#394257"/><path d="M286.07,823.29a111.84,111.84,0,0,0-14.28,10.09c-4.1,3.42-8.62,7.23-11.56,11.73-.16.26.2.63.45.42,4.39-3.49,8.17-7.76,12.53-11.33A123.36,123.36,0,0,1,287,824.43C287.78,824,286.79,822.85,286.07,823.29Z" style="fill:#394257"/><path d="M304.8,795.2a26.79,26.79,0,0,1-1.69,11.43,5.31,5.31,0,0,1,1.63-.38,27.89,27.89,0,0,0,1.44-11.09c-1-12.27-10.48-22.79-22.54-26.12-.43-.11-.44.48-.07.59C295,773.09,303.93,783.53,304.8,795.2Z" style="fill:#394257"/><path d="M300,812.7a30.6,30.6,0,0,1-13.24,11c-.78.34-.19,1.5.53,1.2a31.06,31.06,0,0,0,13.33-10.59A5.2,5.2,0,0,1,300,812.7Z" style="fill:#394257"/><path d="M301.69,796.76a32.71,32.71,0,0,0-15.79-26.93c-.32-.2-.62.31-.31.51a31.72,31.72,0,0,1,14.57,26.78,31.19,31.19,0,0,1-3.72,14.17c-2.68,5-6.43,8.26-10.75,11.76-.72.58.15,1.59.9,1.21C296.12,819.41,301.89,807.1,301.69,796.76Z" style="fill:#394257"/><path d="M275.06,797c-.05-.38-.67-.4-.63,0,2.68,25.25-12.07,48.44-35.54,57.48-.9.35-.23,1.69.6,1.4C263.75,847.34,278.44,822.3,275.06,797Z" style="fill:#394257"/><path d="M269.34,782.18C262.65,766.91,248,756,231,756c-1.28,0-.8,1.79.3,1.85,15.52.82,30.95,10.1,37.45,24.56C268.91,782.72,269.51,782.58,269.34,782.18Z" style="fill:#394257"/><path d="M307.26,778.61c-2-1.28-4.41-2-6.52-3.07s-3.89-2.41-5.92-3.44c-4.39-3.57-9.91-5.41-15.84-3.63-.67.2-.16,1.09.42,1,9.64-1.77,17.32,5.45,21.08,13.61,3.51,7.62,3.88,15.67,2.26,23.74a5.25,5.25,0,0,1,2.69-.54,38.19,38.19,0,0,0-4.21-26.51A28.33,28.33,0,0,0,299,776.4l.77.48c2.13,1.29,4.63,2.87,7.14,3.21C307.92,780.23,308,779.08,307.26,778.61Z" style="fill:#394257"/><path d="M289.16,823.38a19.43,19.43,0,0,0-3.89,1c-.4.16-.18.75.21.71a21.24,21.24,0,0,0,4.11-.75C290.28,824.18,289.75,823.28,289.16,823.38Z" style="fill:#394257"/><path d="M783.58,714.44a38.28,38.28,0,0,0-5.12-.42c-.12-.12-.33-.15-.41,0a27.33,27.33,0,0,0,.34,23.64c.24.48,1.07.31.81-.24a29.14,29.14,0,0,1-.8-22.84,36.56,36.56,0,0,0,5.2.64C784.1,715.28,784,714.51,783.58,714.44Z" style="fill:#394257"/><path d="M785.63,736.91a28.67,28.67,0,0,0-6.28,1.26c-.3.09-.12.51.15.5a29.31,29.31,0,0,0,6.38-.91C786.39,737.63,786.08,736.87,785.63,736.91Z" style="fill:#394257"/><path d="M787.91,741.41c.17-.18,0-.51-.21-.62a33.48,33.48,0,0,0-1.64-3.15c-.14-.28-.6-.19-.47.14.37,1,.66,2,1.1,3a39.05,39.05,0,0,0-4.63.9c-.31.07-.12.54.15.52a33.18,33.18,0,0,0,4.95-.55l0,0c.2.32.87.22.75-.23C787.92,741.45,787.92,741.43,787.91,741.41Z" style="fill:#394257"/><path d="M795.41,754.43c-5.68-2.64-10.22-6.11-13.31-11.69-.15-.28-.65-.19-.49.15,2.58,5.68,7.49,10.7,13.54,12.61C795.84,755.72,796,754.7,795.41,754.43Z" style="fill:#394257"/><path d="M786.15,708.6a7.77,7.77,0,0,0-4.93-1.6c-.4,0-.31.57,0,.63a12.75,12.75,0,0,1,2.42.66c.59.24,1.13.57,1.7.84-1.83,1.09-2.24,3.86-1.78,5.75.07.29.56.33.51,0a5.55,5.55,0,0,1,.36-2.93,12,12,0,0,1,1.54-2.25.37.37,0,0,0,0-.35A.41.41,0,0,0,786.15,708.6Z" style="fill:#394257"/><path d="M795.82,696.6c-6.06,1.74-11.85,4.59-15.3,10.13-.16.25.21.58.42.34,4-4.57,8.92-8.65,15.13-9.64C796.69,697.32,796.38,696.45,795.82,696.6Z" style="fill:#394257"/><path d="M800.91,697.86a36.85,36.85,0,0,0-3.92-1c-.37-.09-.37.43,0,.53a36.11,36.11,0,0,0,3.79,1.18A.37.37,0,0,0,800.91,697.86Z" style="fill:#394257"/><path d="M813.21,758.1a16.21,16.21,0,0,0-4.11,1,.64.64,0,0,0-.35-.14c-1.85-.12-3.67-.26-5.49-.56-1.13-.18-2.28-.52-3.42-.61a10.06,10.06,0,0,0,3.34-.83c.28-.15.21-.44,0-.64a.77.77,0,0,0-.07-.26,5.37,5.37,0,0,0-1.48-1.28c-.29-.21-.59-.45-.91-.64.41-.32.09-1-.44-1a9.6,9.6,0,0,0-2.54.44,5.15,5.15,0,0,0-2.33.77c-.19.16-.07.41.14.48a6,6,0,0,0,2.52-.13c.6-.09,1.26-.13,1.88-.28a5.86,5.86,0,0,0,1.15,1.13c.24.21.48.44.74.65a25,25,0,0,0-3.63,1.22c-.29.11-.13.58.16.53l.34-.05a.31.31,0,0,0,.1.41c2.62,1.85,7,1.95,10.08,1.76a.45.45,0,0,0,.47-.36,17.3,17.3,0,0,0,4-.85C813.89,758.73,813.63,758,813.21,758.1Z" style="fill:#394257"/><path d="M814.61,753.43c-8.53-4.38-15.29-10.58-18.36-19.37a31.35,31.35,0,0,1,4.4-28.49c.16-.23-.23-.54-.41-.31-6.26,8.14-8.56,18.74-5.54,28.42,2.77,8.87,10,17.41,19.38,21C815,755,815.45,753.87,814.61,753.43Z" style="fill:#394257"/><path d="M807.52,696.15a9.48,9.48,0,0,0-4.75-1.12.19.19,0,0,0-.18.1.29.29,0,0,0-.54-.08,3.3,3.3,0,0,0-.29.87,2.87,2.87,0,0,0-.14,1,.47.47,0,0,0,.3.38,14,14,0,0,0-1.76.69c-.26.12,0,.52.25.44a19.7,19.7,0,0,1,6.8-1.09.23.23,0,0,0,.26-.15A.54.54,0,0,0,807.52,696.15Zm-5,.93h0a3.08,3.08,0,0,0,.11-1,4.85,4.85,0,0,0,0-.66.28.28,0,0,0,.15.08,11.64,11.64,0,0,1,3.47,1.06A14.14,14.14,0,0,0,802.53,697.08Z" style="fill:#394257"/><path d="M783.62,712.74a24.07,24.07,0,0,0-1.32-3,16.87,16.87,0,0,0-1.38-2.63c-.12-.17-.48-.12-.43.13a18.24,18.24,0,0,0,1.07,2.95,25,25,0,0,0,1.33,2.93A.4.4,0,0,0,783.62,712.74Z" style="fill:#394257"/><path d="M786,739.25c-1.47.65-2.87,1.48-4.28,2.26-.34.18,0,.76.35.61,1.46-.68,3-1.31,4.38-2.11C786.82,739.77,786.37,739.07,786,739.25Z" style="fill:#394257"/><path d="M799.31,753.22c-.07-.54-.95-.71-1-.1a16,16,0,0,0,0,2.5,8.21,8.21,0,0,0,.22,2.22c.07.24.48.32.58.06a7.64,7.64,0,0,0,.25-2.29A15.89,15.89,0,0,0,799.31,753.22Z" style="fill:#394257"/><path d="M818.43,753.75c-9.1-6-16.94-13.35-19.41-24-2.39-10.34,1.49-22.41,11.12-28.58.3-.2-.07-.63-.36-.45a27.07,27.07,0,0,0-12.24,28.72c2.11,10.36,10.08,20.22,19.87,25.83A4.63,4.63,0,0,1,818.43,753.75Z" style="fill:#394257"/><path d="M821.51,751.71c-8.34-7-16-16.18-17.38-26.86a21.4,21.4,0,0,1,14.92-23.64c.67-.22.17-1.05-.42-.92l-.38.08a7.8,7.8,0,0,0-4.46-1.16,10.1,10.1,0,0,0-8.87,1.59c-.25.18.07.55.31.39a9.54,9.54,0,0,1,6.54-1.6,7.21,7.21,0,0,0-1.25.53c-.26.14,0,.54.27.44a8,8,0,0,1,2.79-.63,9.59,9.59,0,0,1,1,.32c.28.09.47-.06.49-.25a7.64,7.64,0,0,1,2.14.63c-10,2.85-15.3,13.25-14.67,22.52.81,12.07,9.25,21.3,18.61,28.92C821.47,752.29,821.78,751.93,821.51,751.71Z" style="fill:#394257"/><path d="M864,696.38c-7.7,1.78-15.26,3.88-23,5.28-8.07,1.45-16.21,2.35-24.37,3.09-.46,0-.3.7.11.68A179.2,179.2,0,0,0,840.38,703c8.06-1.31,16.38-2.86,24.11-5.52C865.25,697.26,864.68,696.22,864,696.38Z" style="fill:#394257"/><path d="M870.91,737.45l.14.21c.93,1.49,1.93,2.93,3,4.33a62.08,62.08,0,0,1-5-19c-1-10.33-.43-25.58,9.07-32.12.28-.19,0-.64-.31-.47-9.61,6.17-10.69,20.36-10.07,30.69A63.54,63.54,0,0,0,870.91,737.45Z" style="fill:#394257"/><path d="M870.46,690c-9.07,12.74-10.29,31-4.5,45.29.24.6,1.23.44,1-.25-5.49-15.23-3.45-30.53,4.06-44.65C871.15,690.08,870.66,689.69,870.46,690Z" style="fill:#394257"/><path d="M899.39,679.7a34,34,0,0,1-13.88,6.35c-.35.08-.14.57.18.53A30.07,30.07,0,0,0,900,680.32C900.41,680,899.79,679.4,899.39,679.7Z" style="fill:#394257"/><path d="M916.67,768.73c-.31-.83-1.58-.69-1.35.28.71,3-3.14,2.59-4.58,1.63a8.21,8.21,0,0,1-2-2.79c-1.11-2-2.1-4-3-6.11a97.41,97.41,0,0,1-4.07-10.58,103,103,0,0,1-4.57-23.91,106.43,106.43,0,0,1,7.76-47.87c.13-.32-.38-.67-.54-.32-12.7,27.85-11.42,61.63,2.75,88.7,1.22,2.32,3.06,5.51,6.1,5.5C915.52,773.25,917.57,771.07,916.67,768.73Z" style="fill:#394257"/><path d="M924.36,724c-1.65-15.71-6.33-32.76-15.7-45.7-.42-.59-1.25-.2-.92.49,2.49,5.25,5,10.43,7.2,15.8a123.14,123.14,0,0,1,6.15,24.1,126.58,126.58,0,0,1-.15,34.67c-.28,1.58-.59,3.15-1,4.71-1,4.32-2.9,8-4.63,12-.46,1.06,1.07,2.56,1.94,1.52,5.06-6.06,6.15-15.94,7-23.49A111.69,111.69,0,0,0,924.36,724Z" style="fill:#394257"/><path d="M908.92,771.28a95,95,0,0,1-6-93.51c.19-.39-.43-.8-.65-.39-16,28.7-13.64,67.87,5.37,94.61C908.19,772.81,909.53,772.21,908.92,771.28Z" style="fill:#394257"/><path d="M920.05,764.36c-1.76,2.57-3.28,5.31-4.84,8-.35.61.69,1.28,1,.64,1.53-2.71,3.13-5.42,4.46-8.24A.39.39,0,0,0,920.05,764.36Z" style="fill:#394257"/><path d="M909,678.43a2,2,0,0,0-1.89-1,1.62,1.62,0,0,0-1.51,1.14.45.45,0,0,0,.72.44,1.27,1.27,0,0,1,.9-.4.82.82,0,0,1,.71.35C908.41,679.67,909.39,679.23,909,678.43Z" style="fill:#394257"/><path d="M904.66,676.39a1.64,1.64,0,0,0-.9.47c-.26.25,0,.74.35.73a1.63,1.63,0,0,0,1-.25C905.58,677,905.18,676.31,904.66,676.39Z" style="fill:#394257"/><path d="M878.54,689.56c-2-2.45-6.3-1.81-7.14,1.31a.31.31,0,0,0,.56.23,3.49,3.49,0,0,1,5.41-.6C878,691.15,879.16,690.32,878.54,689.56Z" style="fill:#394257"/><path d="M822.61,700.75a3.79,3.79,0,0,0-3-.43c-.42.12-.15.68.2.68a4,4,0,0,1,2.37.76,6,6,0,0,1,1.29,1.86.6.6,0,0,0,1.12-.34A3.72,3.72,0,0,0,822.61,700.75Z" style="fill:#394257"/><path d="M823.05,749c-5.38-6.2-9.82-12.54-11.81-20.66-2.15-8.73-1-17,6-23.11.25-.22-.05-.57-.33-.44-8.07,3.79-9,14.67-7.48,22.28,1.64,8.42,5.89,17.32,12.42,23.05C822.56,750.75,823.77,749.8,823.05,749Z" style="fill:#394257"/><path d="M817,757.1a.34.34,0,0,0-.14,0c-3,.76-5.75,1.68-8.89,1.81-2.8.11-6.86.29-9-1.84l-.06-.05c0-.42,0-.85,0-1.26s0-.55,0-.83l.34-.14c.78-.32.21-1.47-.54-1.24l-.11,0a.21.21,0,0,0-.27.1c-.7.24-1.4.54-2.08.83a6.86,6.86,0,0,0-1.63.86,30.26,30.26,0,0,1-7.65-6.33,32,32,0,0,1-2.47-3.31,7.78,7.78,0,0,1-1.29-2.23c-.49-3,1.43-2.87,3-3.25.29-.07.21-.47,0-.59a.38.38,0,0,0,.24-.33,3.33,3.33,0,0,0-.37-1.26c-.08-.2-.16-.4-.25-.6s-.22-.24-.37-.39a.14.14,0,0,0-.22,0,.42.42,0,0,1,0,.12.8.8,0,0,0-.67-.18,32.73,32.73,0,0,1-3.79.8c-1.84.17-2.06-1.22-2.6-2.76a28.6,28.6,0,0,1-1.28-10.28c.09-2.38-.1-6.11,1-8.28s3.66-1,5.5-1.76a.63.63,0,0,0,1-.71l-.07-.2a.57.57,0,0,0-.25-.3A31.58,31.58,0,0,1,782,710.3a25.93,25.93,0,0,0-1.45-3,43.39,43.39,0,0,1,7-6.63,30.22,30.22,0,0,1,8.21-3.76.6.6,0,0,0,.34.51,11.4,11.4,0,0,0,2.72.6,14.25,14.25,0,0,0,2.68.27.21.21,0,0,0,.19-.1.57.57,0,0,0,.49-.35,6.68,6.68,0,0,0,.26-1.36c.12-.46.39-.85.5-1.3a.22.22,0,0,1,0-.08.21.21,0,0,0,.1.06,49,49,0,0,0,9.77,2.13.68.68,0,0,0,.37-.07,30.31,30.31,0,0,0,2.53,2,21.36,21.36,0,0,0,2.49,1.74.66.66,0,0,0,.68-1.14,21.32,21.32,0,0,0-2.59-1.58,30.71,30.71,0,0,0-2.83-1.51h0a.67.67,0,0,0-.51-.58,49.42,49.42,0,0,0-9.91-1.56.18.18,0,0,0-.2.09.5.5,0,0,0-.71-.16,3,3,0,0,0-.94,1.36,3.82,3.82,0,0,0-.36,1.2l0,0a15.73,15.73,0,0,0-2.53-.77c-.52-.14-1.05-.3-1.59-.4a.71.71,0,0,0-.72-.32c-6.18,1.26-13,5.64-15.81,11.47a.19.19,0,0,0-.15.19c0,2.33,1.56,4.93,2.83,6.92-1.77.15-3.64-1.13-5.21.13s-1.6,4.63-1.81,6.47c-.74,6.3-.57,12.71,2.58,18.37a.87.87,0,0,0,1,.49c1.87-.51,3.8-.79,5.71-1.16l.11,0a2.84,2.84,0,0,0,.26,1,.71.71,0,0,0,.19.23c-1.4-.1-3,.15-3.74,1.5-.86,1.52.36,3.22,1.1,4.52a30.18,30.18,0,0,0,11.26,11.06c.57.33.94-.14.89-.61a11.12,11.12,0,0,0,2.84-.77,2.17,2.17,0,0,0,0,.25,6.37,6.37,0,0,0-.13,1.94c.06.37.67.67.91.33,1.65,2.07,4.94,2.29,7.4,2.43A22.42,22.42,0,0,0,817,758.4,7.06,7.06,0,0,1,817,757.1Z" style="fill:#394257"/><path d="M911,773.28A42.34,42.34,0,0,0,894.9,771c.07.2.14.4.2.61a133.17,133.17,0,0,1,15.79,2.9C911.75,774.73,911.73,773.52,911,773.28Z" style="fill:#394257"/><path d="M908.1,677.15c-3-2.65-6.58,0-8.3,2.8a.57.57,0,0,0-.33.07,117.42,117.42,0,0,1-21,8.49c-6.82-2.68-12.13,4.06-15.41,9.26-.09.13.08.35.22.24,4.66-3.76,8.16-10.93,15.19-8.22a.57.57,0,0,0,.82-.61,65.7,65.7,0,0,0,21-8.06.5.5,0,0,0,.22-.66,16.14,16.14,0,0,1,2.33-2.05c1.61-1.06,2.94-.9,4.66-.26A.58.58,0,0,0,908.1,677.15Z" style="fill:#394257"/><path d="M915,771.58c-1.7,3.34-8.67-.11-11.45-.49a19,19,0,0,0-7.76.25c-.28.08-.08.4.12.42,4.88.43,9.16.76,13.86,2.26,2.39.77,5.54,1.1,6.5-1.82C916.48,771.44,915.35,770.82,915,771.58Z" style="fill:#394257"/><path d="M818.65,699.24c-.72.22-.28,1.25.36,1.22,3-.13,4.84,1.33,5.92,4.06.1.25.52.29.55,0C825.88,701.21,821.67,698.31,818.65,699.24Z" style="fill:#394257"/><path d="M816.18,756.7a32.3,32.3,0,0,1-7.68,1.94c-1,.1-2,.14-3,.14s-7.83,0-6-3.45c.17-.34-.29-.77-.62-.64-1.07.42-2.15.81-3.21,1.23-.27.11-.07.46.17.41l2.42-.55c-.55,2.12,1.76,3.64,3.85,4A25.81,25.81,0,0,0,816.73,758C817.53,757.62,816.94,756.42,816.18,756.7Z" style="fill:#394257"/><path d="M785.84,739a2.09,2.09,0,0,0-2-1.57c-.9-.06-1.53.58-2.36.68-3.11.35-3.79-2.61-4.27-5-1.29-6.48-.36-12.51,1.25-18.81.07-.26-.3-.48-.43-.21-2.77,5.59-3.23,12.46-2.16,18.55.35,2,.75,4.56,2.4,6a4,4,0,0,0,1.9,1c1,.16,4.08-1.15,4.43-.2A.64.64,0,1,0,785.84,739Z" style="fill:#394257"/><path d="M821.29,749.11a33.88,33.88,0,0,1-13.12-36.76c.05-.17-.23-.33-.29-.14a34,34,0,0,0,12.83,37.6C821.24,750.18,821.83,749.49,821.29,749.11Z" style="fill:#394257"/><path d="M823.25,703.52c-4.47-4.07-11,2.09-13.5,5.7-.12.18.15.41.28.24,2.35-3,8.69-8.76,12.57-5.15C823.14,704.81,823.79,704,823.25,703.52Z" style="fill:#394257"/><path d="M818.4,750.84c-13.06-8.42-19.73-23.62-16.15-38.91,0-.18-.26-.26-.3-.07a36.54,36.54,0,0,0,15.89,39.92C818.43,752.15,819,751.21,818.4,750.84Z" style="fill:#394257"/><path d="M816.32,699.87a19,19,0,0,0-12.38,8.57c-.09.15.17.32.28.19a21,21,0,0,1,12.48-7.87C817.3,700.64,816.86,699.75,816.32,699.87Z" style="fill:#394257"/><path d="M811.44,699.11c-3.77.42-7.13,3-9.37,5.92-.12.16.14.37.27.22,2.53-3,5.65-4.33,9.3-5.45C812,699.68,811.81,699.07,811.44,699.11Z" style="fill:#394257"/><path d="M874.05,690.46a26.34,26.34,0,0,0-7.25,12.4c-.06.27.37.5.45.22a28.74,28.74,0,0,1,7.21-12.28C874.68,690.58,874.27,690.25,874.05,690.46Z" style="fill:#394257"/><path d="M869.5,737.06c-2.75-9.64-4.28-19.09-3.34-29.15,0-.18-.29-.27-.31-.07-1,9.74-.38,20.06,3,29.33C869,737.49,869.61,737.45,869.5,737.06Z" style="fill:#394257"/><path d="M904.9,676.69A30.1,30.1,0,0,0,898,692.76c0,.17.26.25.29.06a31.62,31.62,0,0,1,7.07-15.77C905.53,676.8,905.11,676.45,904.9,676.69Z" style="fill:#394257"/><path d="M912.24,773.42a8.81,8.81,0,0,0-1-.45.5.5,0,0,0-.07-.4c-4.1-6.53-7.91-13-10.68-20.23A91.52,91.52,0,0,1,895,730.06c0-.17-.29-.18-.27,0,1.48,14.71,6.22,30.1,15,42.17a8.21,8.21,0,0,1-1.24-1c-.22-.21-.6.1-.38.34,1,1.07,2.42,2.36,3.9,2.55C912.54,774.21,912.63,773.64,912.24,773.42Z" style="fill:#394257"/></svg>